<svg width="108" height="52" viewBox="0 0 108 52" fill="none" xmlns="http://www.w3.org/2000/svg">
<path d="M68.0859 6.71875C70.9721 3.70109 75.2579 2.20231 79.4004 2.88574C82.802 3.44724 83.639 7.89091 80.6123 9.46973C79.4352 10.0835 78.338 9.82604 77.1221 9.76953C76.5816 9.82459 76.0272 9.8764 75.4434 10.0879C73.3225 10.8572 71.7085 13.102 71.4297 15.3154C71.393 15.6077 71.341 16.2214 71.3184 16.6748H75.0762C77.0258 16.675 78.6064 18.2554 78.6064 20.2051C78.6061 22.1544 77.0256 23.7352 75.0762 23.7354H71.3066V35.8604C70.9039 40.2037 64.3655 40.3052 64.0664 35.6807C64.2164 30.6221 64.117 25.5278 64.1807 20.4609C64.1746 20.3766 64.1719 20.291 64.1719 20.2051C64.1719 20.0773 64.1782 19.9504 64.1914 19.8262C64.2105 18.5896 64.2374 17.3542 64.2842 16.1221C64.3694 13.8828 64.8584 11.8096 65.8037 9.94922C66.3588 8.83182 67.0987 7.75111 68.0859 6.71875ZM33.6699 17.1426C36.6138 14.1046 40.9847 12.595 45.21 13.2832C48.6793 13.8487 49.5327 18.3228 46.4453 19.9121C45.1146 20.5972 43.885 20.2021 42.4785 20.2021C39.6183 20.2023 37.1602 22.9249 37.1602 25.6455C37.1602 28.9461 37.1006 32.7062 37.1006 35.9795C37.1006 40.0793 29.92 40.3499 29.9199 35.7979C29.9199 29.0534 28.4971 22.4815 33.6699 17.1426ZM55.2656 13.0439C57.2468 13.044 58.8532 14.6497 58.8535 16.6309V35.5449C58.8535 37.5263 57.247 39.1327 55.2656 39.1328C53.2843 39.1327 51.6777 37.5263 51.6777 35.5449V16.6309C51.678 14.6497 53.2845 13.0441 55.2656 13.0439ZM84.8457 16.625C92.5163 8.89987 105.728 13.4985 107.136 24.1797C108.566 35.0321 97.072 42.7317 87.5205 37.4014C79.9777 33.1918 78.8186 22.6947 84.8457 16.625ZM0.00683594 3.37695C0.457119 -0.157765 5.34949 -1.31457 7.18652 1.83984C7.37513 2.16364 7.72342 3.01793 7.72363 3.36914V13.915C8.29858 13.7428 8.8419 13.4192 9.41016 13.2002C20.1184 9.06794 29.8175 18.8773 26.7148 29.6445C22.6998 43.5755 0.993656 41.7016 0 27.0742L0.00683594 3.37695ZM20.2422 24.7754C19.3295 18.4611 10.5708 17.4617 8.09668 23.2539C6.04397 28.0603 10.0313 33.3258 14.9922 33.6689C15.3922 33.6964 16.5622 33.8007 16.6973 33.3682C16.9586 32.527 16.1927 32.6443 15.6445 32.4697C14.982 32.2586 14.0171 31.8172 13.8057 31.1172C17.7862 32.2538 20.7907 28.5716 20.2422 24.7754ZM99.3477 29.1436C101.988 24.7936 98.3771 19.3953 93.3877 19.9043L93.3867 19.9033C89.5959 20.2903 87.1358 24.3952 88.335 27.9561C89.9919 32.8769 96.6636 33.5648 99.3477 29.1436ZM55.2656 2.46191C57.2122 2.46196 58.7898 4.03985 58.79 5.98633C58.79 7.93302 57.2123 9.51167 55.2656 9.51172C53.319 9.51158 51.7402 7.93296 51.7402 5.98633C51.7405 4.0399 53.3192 2.46205 55.2656 2.46191Z" fill="url(#paint0_linear_137_111)"/>
<path d="M1.40283 42.5283C2.11604 42.3216 2.94461 42.5777 3.30127 43.2031C5.1618 46.4654 9.03175 48.5644 13.4243 48.6426C17.93 48.7212 21.8854 46.7389 24.0308 43.3643H24.0317C24.4444 42.716 25.3712 42.5006 26.0991 42.8145C26.8459 43.1367 27.2008 43.9497 26.7622 44.6396C25.3823 46.8103 23.3593 48.567 20.9155 49.7227C18.7186 50.7617 16.2221 51.3057 13.6772 51.3057C13.5714 51.3057 13.4657 51.3046 13.3599 51.3027C10.7277 51.2559 8.167 50.6294 5.95557 49.4873C3.61226 48.277 1.7268 46.5103 0.508301 44.374C0.104257 43.6655 0.504604 42.8693 1.26221 42.5762L1.40283 42.5283Z" fill="#6946F6" stroke="#6946F6" stroke-width="0.565153"/>
<defs>
<linearGradient id="paint0_linear_137_111" x1="54.8105" y1="-8.66926" x2="34.5391" y2="41.2025" gradientUnits="userSpaceOnUse">
<stop stop-color="#BA74FB"/>
<stop offset="1" stop-color="#6946F6"/>
</linearGradient>
</defs>
</svg>
