<svg viewBox="34 68 213 140" xmlns="http://www.w3.org/2000/svg">
<path d="M68.5648 145.169C68.0311 145.168 67.5985 144.734 67.5985 144.2C67.5985 144.156 67.5985 144.113 67.5985 144.069C67.5985 143.978 67.6115 143.886 67.6377 143.799C69.9567 136.042 76.7787 131.968 82.3371 126.572C89.6037 119.518 95.0416 111.8 93.1332 101.033C90.4492 85.8981 70.7873 77.8005 59.6192 89.6015C59.1553 90.0919 57.7131 92.2709 57.2952 92.3482C56.8903 92.4231 55.4665 92.0374 54.1906 91.6951C54.109 91.6732 54.0205 91.6446 53.9896 91.566C53.672 90.758 56.3838 86.1641 56.8676 85.4029C70.3669 64.1659 104.11 68.8573 111.442 93.114C114.088 101.864 111.73 107.304 111.312 115.689C110.792 126.113 117.412 132.631 120.613 141.922C125.971 157.473 123.818 178.594 114.419 192.236C113.131 194.103 111.297 195.835 110.114 197.594C109.882 197.938 110.157 198.197 110.57 198.238C115.02 198.676 121.773 202.574 122.595 207.15C122.689 207.673 122.25 208.105 121.719 208.105H35.0804C34.5111 208.105 34.0603 207.612 34.1968 207.059C35.2928 202.623 40.5101 199.444 45.0352 198.481C45.8345 198.311 46.2288 197.29 45.6962 196.67C39.4419 189.392 35.4971 180.556 34.0603 170.982C31.8378 156.175 33.6835 143.734 42.8634 131.791C46.1488 127.517 54.0726 119.603 54.0726 114.01V110.866C54.0726 110.289 54.5847 109.829 55.125 110.032C58.5982 111.334 58.8558 116.835 58.3871 120.016C57.4063 126.703 52.6714 131.525 49.3811 137.1C46.4411 142.082 44.4795 147.283 44.1582 153.136C43.7476 160.606 43.6244 171.593 44.1703 178.992C44.8153 187.707 51.7361 194.278 60.4341 194.131C60.9354 194.123 61.3667 194.474 61.3731 194.976C61.4039 197.419 60.949 202.788 61.675 203.522C62.0953 203.947 62.6582 203.764 63.1003 203.483L74.7481 194.359C74.9237 194.222 75.1409 194.149 75.3639 194.154C85.6737 194.385 97.0357 195.055 101.465 183.631C103.241 179.048 102.929 167.087 102.642 161.833C102.192 153.653 102.642 145.167 87.8967 145.167C87.8967 145.167 87.0873 145.186 86.6234 145.167C86.6234 145.167 74.8506 145.104 68.9271 145.167C68.7744 145.168 68.6756 145.169 68.5648 145.169Z" fill="url(#logo_grad_main)"/>
<path d="M52.8019 95.8292C60.7353 94.8629 60.873 108.051 51.9539 105.734C49.2217 105.024 43.4528 103.156 41.0226 101.929C39.3968 101.108 39.3267 99.7765 41.0226 99.0276C43.047 98.1338 50.5914 96.0997 52.8019 95.8292Z" fill="black"/>
<circle cx="58.967" cy="169.504" r="3.62366" fill="black"/>
<circle cx="73.0426" cy="169.504" r="3.62366" fill="black"/>
<circle cx="87.1183" cy="169.504" r="3.62366" fill="black"/>
<path d="M207.838 129.103C208.221 129.103 208.604 129.094 208.987 129.106C209.444 129.119 209.692 129.362 209.715 129.819C209.732 130.142 209.728 130.467 209.721 130.791C209.716 131.025 209.805 131.128 210.051 131.154C210.943 131.244 211.834 131.352 212.704 131.586C214.127 131.971 215.447 132.567 216.613 133.479C218.321 134.815 219.295 136.578 219.616 138.706C219.874 140.405 219.679 142.054 218.948 143.62C217.946 145.765 216.262 147.158 214.069 147.969C212.805 148.437 211.488 148.672 210.147 148.774C209.748 148.804 209.728 148.815 209.72 149.215C209.714 149.509 209.726 149.804 209.714 150.098C209.692 150.603 209.45 150.862 208.942 150.875C208.206 150.893 207.469 150.892 206.733 150.876C206.182 150.865 205.968 150.629 205.958 150.082C205.954 149.817 205.96 149.552 205.956 149.287C205.95 148.838 205.919 148.813 205.491 148.776C204.09 148.656 202.72 148.388 201.411 147.868C199.625 147.16 198.132 146.067 197.126 144.404C196.143 142.78 195.761 141.01 195.963 139.114C196.252 136.403 197.603 134.376 199.893 132.944C201.287 132.071 202.817 131.571 204.435 131.321C204.798 131.265 205.164 131.229 205.526 131.169C205.88 131.11 205.908 131.082 205.938 130.72C205.961 130.441 205.952 130.161 205.958 129.881C205.971 129.314 206.167 129.116 206.734 129.103C206.925 129.099 207.116 129.103 207.308 129.103C207.485 129.103 207.662 129.103 207.839 129.103V129.105L207.838 129.103ZM205.961 140.047C205.961 138.384 205.963 136.722 205.96 135.059C205.959 134.675 205.904 134.614 205.571 134.656C204.514 134.791 203.483 135.032 202.532 135.529C200.831 136.418 199.854 137.824 199.759 139.743C199.659 141.746 200.51 143.304 202.23 144.359C203.016 144.842 203.885 145.118 204.792 145.274C205.052 145.319 205.311 145.377 205.579 145.373C205.914 145.368 205.947 145.34 205.961 144.991C205.964 144.903 205.962 144.815 205.962 144.726C205.962 143.166 205.962 141.607 205.962 140.047L205.961 140.047ZM209.722 140.02C209.722 140.373 209.722 140.726 209.722 141.079C209.722 142.388 209.72 143.698 209.724 145.007C209.725 145.397 209.732 145.4 210.119 145.375C210.887 145.326 211.635 145.174 212.357 144.912C215.068 143.928 216.268 141.53 215.751 138.931C215.393 137.131 214.261 135.937 212.576 135.254C211.85 134.959 211.092 134.787 210.316 134.68C209.765 134.605 209.723 134.625 209.722 135.166C209.721 136.784 209.721 138.402 209.721 140.02H209.722Z" fill="black"/>
<path d="M131.319 141.348C131.275 138.581 131.335 135.796 131.335 133.028C131.335 132.013 131.629 131.7 132.645 131.698C136.785 131.691 140.923 131.694 145.063 131.697C145.238 131.697 145.417 131.713 145.589 131.748C145.995 131.829 146.285 132.131 146.3 132.538C146.323 133.126 146.325 133.716 146.301 134.304C146.281 134.794 145.939 135.118 145.453 135.159C145.292 135.172 145.129 135.166 144.967 135.166C142.05 135.166 139.134 135.166 136.217 135.167C135.314 135.167 135.176 135.306 135.179 136.223C135.18 136.9 135.161 137.577 135.221 138.253C135.263 138.721 135.275 138.75 135.745 138.751C137.763 138.754 139.781 138.744 141.799 138.756C142.926 138.763 144.03 138.931 145.067 139.402C147.059 140.308 148.176 141.86 148.427 144.026C148.61 145.606 148.288 147.077 147.338 148.372C146.318 149.764 144.907 150.515 143.223 150.796C142.8 150.867 142.376 150.889 141.948 150.888C138.81 150.886 135.673 150.887 132.535 150.887C132.447 150.887 132.358 150.888 132.27 150.886C131.688 150.867 131.405 150.604 131.357 150.029C131.344 149.883 131.348 149.734 131.348 149.588C131.348 147.365 131.323 145.142 131.319 142.918C131.318 142.388 131.319 142.18 131.319 141.624V141.348ZM139.009 147.396V147.393C140.039 147.393 141.069 147.392 142.098 147.394C142.566 147.395 143.003 147.283 143.402 147.041C144.442 146.411 144.835 145.442 144.502 143.965C144.264 142.911 143.298 142.239 142.12 142.231C140.06 142.216 138 142.222 135.94 142.227C135.39 142.228 135.231 142.385 135.228 142.943C135.22 144.237 135.222 145.531 135.228 146.825C135.231 147.335 135.298 147.393 135.831 147.395C136.89 147.398 137.95 147.396 139.009 147.396V147.396Z" fill="black"/>
<path d="M188.215 137.932C187.74 138.476 187.305 138.972 186.872 139.47C185.172 141.425 183.473 143.382 181.774 145.337C180.499 146.803 179.224 148.27 177.948 149.735C177.735 149.979 177.52 150.222 177.291 150.45C176.997 150.743 176.641 150.895 176.217 150.888C175.716 150.879 175.216 150.891 174.715 150.884C173.997 150.873 173.63 150.537 173.556 149.824C173.536 149.634 173.539 149.442 173.541 149.251C173.588 145.232 173.601 141.214 173.595 137.196C173.593 135.724 173.596 134.252 173.598 132.78C173.598 132.633 173.594 132.484 173.616 132.34C173.677 131.952 173.938 131.678 174.322 131.668C175.073 131.646 175.825 131.646 176.575 131.667C176.964 131.678 177.219 131.956 177.27 132.343C177.278 132.401 177.278 132.461 177.279 132.52C177.28 132.623 177.28 132.726 177.28 132.829C177.275 136.714 177.365 140.6 177.332 144.486C177.33 144.615 177.304 144.751 177.374 144.877C177.512 144.908 177.546 144.783 177.606 144.713C179.224 142.842 180.838 140.968 182.456 139.098C184.411 136.837 186.372 134.582 188.326 132.321C188.715 131.87 189.179 131.617 189.791 131.65C190.187 131.671 190.587 131.645 190.983 131.658C191.537 131.677 191.915 132.005 192.038 132.55C192.087 132.767 192.098 132.986 192.098 133.208C192.097 138.698 192.097 144.19 192.097 149.68C192.097 149.886 192.099 150.093 192.043 150.294C191.948 150.643 191.714 150.867 191.354 150.875C190.588 150.892 189.822 150.892 189.057 150.876C188.675 150.868 188.434 150.638 188.344 150.268C188.291 150.051 188.3 149.83 188.299 149.609C188.297 145.914 188.295 142.219 188.291 138.524C188.291 138.353 188.324 138.175 188.215 137.932H188.215Z" fill="black"/>
<path d="M158.246 135.212C157.068 135.212 155.89 135.216 154.712 135.21C154.227 135.207 153.741 135.187 153.257 135.161C152.794 135.137 152.465 134.885 152.379 134.433C152.255 133.779 152.264 133.113 152.369 132.458C152.433 132.059 152.709 131.82 153.111 131.737C153.314 131.694 153.519 131.685 153.726 131.685C156.759 131.686 159.792 131.673 162.825 131.691C164.554 131.701 166.134 132.181 167.476 133.318C168.753 134.399 169.429 135.795 169.654 137.432C169.819 138.636 169.709 139.82 169.283 140.951C168.291 143.594 166.295 145.077 163.445 145.134C161.827 145.166 160.206 145.139 158.587 145.14C158.44 145.14 158.291 145.135 158.145 145.148C157.259 145.225 156.682 145.821 156.666 146.713C156.648 147.683 156.66 148.655 156.658 149.626C156.658 149.773 156.663 149.921 156.652 150.067C156.611 150.611 156.35 150.872 155.808 150.88C155.102 150.891 154.395 150.891 153.688 150.88C153.123 150.872 152.84 150.6 152.835 150.038C152.826 148.787 152.793 147.534 152.845 146.286C152.956 143.621 154.94 141.745 157.617 141.73C159.266 141.721 160.915 141.725 162.564 141.73C162.95 141.731 163.33 141.689 163.698 141.584C164.879 141.245 165.543 140.419 165.791 139.25C165.92 138.642 165.898 138.025 165.732 137.416C165.38 136.124 164.396 135.311 163.06 135.227C162.855 135.215 162.648 135.213 162.442 135.212C161.044 135.211 159.645 135.212 158.246 135.212V135.212Z" fill="black"/>
<path d="M246.778 145.4C246.778 146.857 246.778 148.314 246.778 149.77C246.778 149.903 246.783 150.036 246.772 150.167C246.735 150.57 246.505 150.852 246.108 150.866C245.299 150.894 244.488 150.893 243.68 150.866C243.303 150.854 243.04 150.555 242.987 150.175C242.965 150.016 242.97 149.852 242.97 149.691C242.969 147.013 242.97 144.334 242.969 141.656C242.969 141.392 242.976 141.127 242.908 140.867C242.698 140.07 242.109 139.603 241.221 139.578C240.455 139.556 239.69 139.57 238.924 139.569C238.468 139.569 238.011 139.554 237.555 139.578C236.892 139.611 236.315 139.825 235.965 140.445C235.786 140.762 235.727 141.107 235.727 141.464C235.726 142.391 235.725 143.318 235.725 144.245C235.725 146.055 235.725 147.865 235.725 149.675C235.725 149.837 235.731 150 235.711 150.16C235.659 150.559 235.387 150.856 234.986 150.869C234.206 150.895 233.425 150.893 232.645 150.873C232.273 150.864 232 150.577 231.936 150.198C231.915 150.069 231.916 149.934 231.916 149.802C231.915 146.947 231.907 144.093 231.919 141.238C231.924 140.031 232.236 138.911 233.011 137.952C233.533 137.307 234.193 136.849 234.963 136.557C235.586 136.32 236.232 136.188 236.905 136.191C238.568 136.197 240.232 136.172 241.895 136.201C243.119 136.223 244.239 136.585 245.195 137.388C246.034 138.093 246.503 138.998 246.689 140.064C246.755 140.441 246.782 140.821 246.78 141.206C246.775 142.603 246.778 144.002 246.779 145.399L246.778 145.4Z" fill="url(#logo_grad_n)"/>
<path d="M224.768 135.694C225.469 135.675 226.171 135.671 226.872 135.695C227.486 135.717 227.788 136.063 227.79 136.712C227.795 138.922 227.792 141.132 227.792 143.342H227.793V149.696C227.793 149.849 227.799 150.002 227.785 150.153C227.746 150.569 227.503 150.855 227.089 150.868C226.267 150.895 225.442 150.894 224.62 150.869C224.212 150.857 223.956 150.589 223.88 150.181C223.849 150.018 223.845 149.848 223.845 149.681C223.843 145.444 223.843 141.208 223.844 136.971C223.844 136.804 223.848 136.633 223.88 136.47C223.97 136.009 224.297 135.708 224.768 135.694ZM225.835 129.1C227.073 129.097 228.099 130.153 228.1 131.434C228.102 132.688 227.099 133.689 225.834 133.695C224.532 133.702 223.522 132.702 223.537 131.422C223.552 130.168 224.606 129.103 225.835 129.1Z" fill="url(#logo_grad_i)"/>
<defs>
<linearGradient id="logo_grad_main" x1="78.3494" y1="71.8833" x2="78.3494" y2="208.105" gradientUnits="userSpaceOnUse">
<stop stop-color="#6447F3"/><stop offset="1" stop-color="#763DEE"/>
</linearGradient>
<linearGradient id="logo_grad_n" x1="239.346" y1="136.187" x2="239.346" y2="150.888" gradientUnits="userSpaceOnUse">
<stop stop-color="#6447F3"/><stop offset="1" stop-color="#763DEE"/>
</linearGradient>
<linearGradient id="logo_grad_i" x1="225.819" y1="129.1" x2="225.819" y2="133.695" gradientUnits="userSpaceOnUse">
<stop stop-color="#6447F3"/><stop offset="1" stop-color="#763DEE"/>
</linearGradient>
</defs>
</svg>
