<svg width="270" height="96" viewBox="0 0 270 96" fill="none" xmlns="http://www.w3.org/2000/svg">
<path d="M32.3135 50.5421C32.0507 50.5418 31.8377 50.328 31.8377 50.0652C31.8377 50.0435 31.8377 50.022 31.8377 50.0008C31.8377 49.9558 31.8441 49.9107 31.857 49.8676C32.9989 46.0477 36.3582 44.0416 39.0952 41.385C42.6734 37.9114 45.3511 34.1108 44.4114 28.8089C43.0898 21.3562 33.4079 17.3688 27.9085 23.1798C27.6801 23.4213 26.97 24.4943 26.7642 24.5324C26.5648 24.5692 25.8637 24.3793 25.2354 24.2108C25.1952 24.2 25.1517 24.1859 25.1364 24.1472C24.9801 23.7493 26.3154 21.4872 26.5536 21.1124C33.2009 10.6549 49.8168 12.965 53.4271 24.9095C54.7297 29.2181 53.5687 31.897 53.3629 36.026C53.1071 41.1589 56.3665 44.3684 57.9427 48.9435C60.5812 56.6007 59.5213 67.0011 54.8927 73.7186C54.2586 74.6381 53.3557 75.491 52.7728 76.357C52.6586 76.5264 52.7943 76.6542 52.9976 76.6742C55.189 76.8897 58.5144 78.8092 58.9191 81.0628C58.9653 81.3201 58.7489 81.5328 58.4875 81.5328H15.8252C15.5449 81.5328 15.3229 81.2902 15.3901 81.018C15.9298 78.8335 18.4989 77.2681 20.7271 76.7942C21.1207 76.7105 21.3149 76.2074 21.0526 75.9022C17.9729 72.3182 16.0304 67.9675 15.3229 63.2528C14.2285 55.9619 15.1373 49.8356 19.6577 43.9544C21.2755 41.8501 25.1773 37.9531 25.1773 35.1992V33.6506C25.1773 33.3665 25.4295 33.1403 25.6955 33.24C27.4058 33.8813 27.5326 36.5901 27.3019 38.1565C26.8189 41.4492 24.4873 43.8236 22.8671 46.5691C21.4194 49.022 20.4535 51.5831 20.2953 54.4654C20.0931 58.1436 20.0324 63.5537 20.3013 67.1974C20.6189 71.4886 24.0268 74.7244 28.3098 74.652C28.5567 74.6479 28.7691 74.8209 28.7722 75.0678C28.7874 76.2711 28.5634 78.9146 28.9208 79.2762C29.1278 79.4856 29.405 79.3952 29.6227 79.2572L35.3583 74.7643C35.4448 74.6965 35.5517 74.6608 35.6615 74.6632C40.7382 74.7771 46.333 75.1072 48.5142 69.4813C49.3885 67.2247 49.2351 61.3352 49.0935 58.7479C48.8723 54.72 49.0935 50.541 41.8328 50.541C41.8328 50.541 41.4343 50.5506 41.2059 50.541C41.2059 50.541 35.4087 50.5101 32.4919 50.541C32.4167 50.5419 32.3681 50.5422 32.3135 50.5421Z" fill="url(#paint0_linear_110_871)"/>
<path d="M24.5516 26.2463C28.4581 25.7705 28.5259 32.2643 24.134 31.1235C22.7886 30.7738 19.948 29.8542 18.7513 29.2499C17.9507 28.8455 17.9162 28.19 18.7513 27.8213C19.7481 27.3811 23.4631 26.3795 24.5516 26.2463Z" fill="black"/>
<circle cx="27.5877" cy="62.5248" r="1.78435" fill="black"/>
<circle cx="34.5186" cy="62.5251" r="1.78435" fill="black"/>
<circle cx="41.4496" cy="62.5251" r="1.78435" fill="black"/>
<path d="M192.747 52.6153C193.258 52.6153 193.77 52.603 194.281 52.6182C194.891 52.6364 195.222 52.958 195.252 53.5653C195.274 53.9942 195.269 54.4249 195.26 54.855C195.254 55.1654 195.372 55.3033 195.7 55.3368C196.892 55.4565 198.08 55.5997 199.242 55.9112C201.142 56.4211 202.903 57.2127 204.459 58.4232C206.739 60.1965 208.038 62.5371 208.468 65.3613C208.811 67.6175 208.552 69.8056 207.576 71.8845C206.239 74.7322 203.99 76.5805 201.064 77.6579C199.376 78.2793 197.619 78.5914 195.828 78.7264C195.295 78.7663 195.269 78.781 195.258 79.3114C195.251 79.7022 195.267 80.0936 195.25 80.4838C195.221 81.1545 194.898 81.4983 194.22 81.5154C193.238 81.5394 192.254 81.5371 191.271 81.5165C190.536 81.5013 190.25 81.1891 190.238 80.4621C190.232 80.1106 190.24 79.7585 190.235 79.4071C190.227 78.8115 190.185 78.778 189.613 78.7293C187.744 78.5691 185.916 78.2135 184.168 77.5241C181.784 76.5841 179.791 75.1324 178.448 72.9255C177.136 70.7697 176.627 68.4208 176.897 65.9029C177.282 62.3054 179.086 59.6144 182.141 57.7132C184.003 56.5549 186.044 55.8907 188.204 55.5592C188.689 55.4846 189.177 55.4365 189.661 55.3567C190.133 55.2787 190.171 55.2417 190.211 54.7606C190.241 54.3915 190.229 54.0189 190.238 53.648C190.255 52.8946 190.517 52.6317 191.273 52.6153C191.528 52.6094 191.784 52.6141 192.04 52.6141C192.276 52.6141 192.512 52.6141 192.748 52.6141V52.6171L192.747 52.6153ZM190.242 67.1422C190.242 64.9347 190.244 62.7279 190.24 60.5204C190.239 60.0111 190.165 59.9295 189.72 59.9858C188.31 60.1654 186.934 60.4846 185.664 61.1447C183.393 62.3253 182.089 64.1907 181.963 66.7379C181.83 69.3978 182.965 71.4656 185.261 72.8656C186.311 73.5064 187.47 73.8731 188.681 74.0803C189.028 74.1395 189.373 74.2176 189.731 74.2117C190.179 74.2047 190.222 74.1677 190.241 73.7047C190.245 73.588 190.242 73.4706 190.242 73.3533C190.242 71.2825 190.242 69.2123 190.242 67.1416L190.242 67.1422ZM195.261 67.1064C195.261 67.5752 195.261 68.0435 195.261 68.5123C195.261 70.2498 195.259 71.9878 195.264 73.7253C195.265 74.2434 195.274 74.2469 195.791 74.2141C196.816 74.1495 197.815 73.9477 198.779 73.5997C202.397 72.2929 203.999 69.1103 203.309 65.66C202.831 63.2706 201.32 61.6857 199.071 60.7792C198.102 60.3884 197.09 60.1601 196.054 60.0181C195.319 59.9178 195.262 59.9453 195.262 60.663C195.26 62.8106 195.261 64.9582 195.261 67.1064H195.261Z" fill="black"/>
<path d="M81.9314 67.1929C81.8642 63.0342 81.9549 58.8472 81.9555 54.6878C81.9555 53.1616 82.3967 52.6911 83.9243 52.6885C90.1461 52.6778 96.3672 52.6825 102.589 52.6858C102.853 52.6858 103.121 52.7111 103.38 52.7629C103.99 52.8851 104.426 53.3383 104.449 53.9509C104.483 54.8346 104.486 55.7216 104.45 56.6053C104.42 57.3409 103.905 57.8279 103.175 57.8897C102.933 57.9103 102.688 57.901 102.445 57.901C98.0609 57.901 93.6769 57.901 89.2929 57.9023C87.9362 57.9023 87.7282 58.1116 87.7322 59.4897C87.7348 60.5069 87.7056 61.5242 87.7966 62.5408C87.8597 63.2438 87.8777 63.2883 88.5833 63.2896C91.6165 63.2936 94.6503 63.2783 97.6835 63.2969C99.3778 63.3076 101.036 63.5594 102.595 64.2683C105.59 65.6298 107.269 67.9626 107.645 71.2177C107.921 73.5924 107.437 75.8044 106.01 77.7512C104.476 79.8428 102.355 80.971 99.8243 81.3943C99.1884 81.5006 98.5499 81.5332 97.9067 81.5325C93.1905 81.5292 88.475 81.5305 83.7588 81.5305C83.6259 81.5305 83.493 81.5325 83.3601 81.5285C82.4857 81.5006 82.0605 81.1053 81.9874 80.2408C81.9688 80.0209 81.9741 79.7983 81.9741 79.5777C81.9741 76.2362 81.9367 72.8948 81.9314 69.5533C81.93 68.7566 81.9314 68.4433 81.9314 67.6071V67.1929ZM93.4895 76.2828V76.2794C95.0377 76.2794 96.5858 76.2768 98.1333 76.2808C98.8363 76.2821 99.4928 76.114 100.092 75.7505C101.656 74.8024 102.247 73.3459 101.746 71.126C101.388 69.5427 99.9366 68.5321 98.1652 68.5194C95.0696 68.4968 91.9733 68.5068 88.877 68.5135C88.0498 68.5154 87.8112 68.752 87.8066 69.5905C87.7946 71.5353 87.7973 73.4808 87.8066 75.4256C87.8106 76.1924 87.9116 76.2794 88.7129 76.2821C90.3049 76.2867 91.8975 76.2834 93.4895 76.2834V76.2828Z" fill="black"/>
<path d="M165.99 62.0579C165.276 62.8758 164.621 63.6213 163.971 64.3695C161.416 67.3083 158.863 70.2491 156.308 73.1879C154.392 75.3925 152.476 77.5971 150.557 79.7991C150.238 80.1659 149.914 80.5306 149.569 80.8742C149.128 81.314 148.592 81.5419 147.956 81.5313C147.203 81.5187 146.45 81.5366 145.698 81.5253C144.618 81.5087 144.067 81.0037 143.956 79.9327C143.926 79.6476 143.93 79.3579 143.933 79.0709C144.005 73.0311 144.023 66.9913 144.014 60.9516C144.011 58.739 144.016 56.5264 144.018 54.3138C144.018 54.0926 144.012 53.8686 144.046 53.652C144.137 53.0693 144.53 52.658 145.107 52.6421C146.236 52.6102 147.366 52.6095 148.493 52.6414C149.079 52.6574 149.462 53.076 149.539 53.6574C149.55 53.7451 149.55 53.8341 149.551 53.9225C149.554 54.0773 149.554 54.2321 149.554 54.3869C149.545 60.2273 149.681 66.0678 149.631 71.9089C149.629 72.1035 149.589 72.3069 149.695 72.4962C149.903 72.5441 149.953 72.356 150.044 72.2504C152.475 69.4385 154.901 66.6212 157.333 63.81C160.272 60.4127 163.219 57.0221 166.156 53.6235C166.742 52.9457 167.439 52.5657 168.358 52.6148C168.954 52.6467 169.554 52.6082 170.151 52.6281C170.983 52.656 171.552 53.1484 171.736 53.9683C171.809 54.2939 171.827 54.6241 171.827 54.957C171.825 63.21 171.825 71.4637 171.824 79.7167C171.824 80.0263 171.827 80.3373 171.744 80.6396C171.601 81.1639 171.249 81.5007 170.708 81.5127C169.557 81.5386 168.405 81.5386 167.255 81.514C166.681 81.5021 166.319 81.1559 166.184 80.6004C166.104 80.2742 166.117 79.9413 166.116 79.6097C166.112 74.0557 166.11 68.5023 166.104 62.9482C166.104 62.6904 166.153 62.4227 165.99 62.0579H165.99Z" fill="black"/>
<path d="M121.674 57.9695C119.903 57.9695 118.133 57.9761 116.363 57.9662C115.633 57.9622 114.903 57.9316 114.175 57.8931C113.48 57.8565 112.985 57.4778 112.856 56.7988C112.67 55.8161 112.683 54.8154 112.841 53.83C112.937 53.2301 113.351 52.8719 113.956 52.7463C114.262 52.6826 114.569 52.6686 114.88 52.6686C119.439 52.6699 123.998 52.6507 128.557 52.6772C131.155 52.6925 133.53 53.4141 135.548 55.123C137.467 56.7476 138.484 58.8466 138.821 61.3063C139.069 63.1156 138.904 64.8956 138.264 66.5966C136.772 70.5693 133.772 72.7978 129.489 72.8829C127.056 72.9314 124.621 72.8915 122.186 72.8928C121.965 72.8928 121.743 72.8855 121.523 72.9048C120.191 73.0197 119.323 73.9167 119.299 75.2563C119.273 76.7154 119.29 78.1758 119.287 79.6356C119.287 79.8568 119.295 80.0788 119.278 80.2987C119.217 81.116 118.824 81.508 118.01 81.5206C116.949 81.5365 115.885 81.5365 114.824 81.5206C113.974 81.508 113.548 81.0993 113.541 80.2542C113.527 78.3745 113.478 76.4914 113.557 74.6144C113.723 70.6092 116.705 67.7899 120.729 67.7673C123.207 67.7534 125.686 67.76 128.164 67.7673C128.744 67.7687 129.316 67.7056 129.869 67.5467C131.645 67.0378 132.643 65.7966 133.015 64.0398C133.209 63.1256 133.176 62.1973 132.926 61.2824C132.397 59.3409 130.918 58.119 128.91 57.9928C128.602 57.9735 128.291 57.9708 127.982 57.9702C125.879 57.9682 123.776 57.9695 121.674 57.9702V57.9695Z" fill="black"/>
<path d="M247.816 73.2833C247.816 75.4727 247.816 77.6627 247.816 79.852C247.816 80.0513 247.824 80.2513 247.806 80.4487C247.751 81.054 247.405 81.4785 246.808 81.4991C245.593 81.541 244.374 81.5397 243.159 81.4991C242.592 81.4805 242.197 81.0314 242.118 80.4606C242.084 80.2214 242.092 79.9749 242.092 79.7324C242.091 75.7072 242.092 71.6814 242.09 67.6562C242.09 67.2588 242.101 66.8602 241.998 66.4688C241.683 65.2715 240.797 64.5699 239.463 64.532C238.312 64.4994 237.162 64.5194 236.011 64.5187C235.325 64.5187 234.637 64.4961 233.953 64.5313C232.956 64.5818 232.089 64.9034 231.562 65.8349C231.293 66.3114 231.206 66.8296 231.205 67.3671C231.204 68.7605 231.202 70.1538 231.202 71.5471C231.202 74.2674 231.202 76.9882 231.202 79.7085C231.202 79.9517 231.211 80.1975 231.18 80.4374C231.103 81.038 230.695 81.4839 230.091 81.5038C228.919 81.543 227.745 81.539 226.573 81.5091C226.014 81.4951 225.604 81.0646 225.507 80.4952C225.475 80.3005 225.477 80.0985 225.477 79.8998C225.475 75.6089 225.463 71.3186 225.481 67.0276C225.489 65.2124 225.957 63.5293 227.123 62.0882C227.908 61.1181 228.899 60.4297 230.057 59.9905C230.993 59.6351 231.964 59.4364 232.975 59.4404C235.475 59.4503 237.977 59.4118 240.477 59.4563C242.316 59.4889 243.999 60.0337 245.436 61.2403C246.698 62.2995 247.402 63.6609 247.682 65.2622C247.781 65.8296 247.821 66.4011 247.819 66.9784C247.811 69.0794 247.816 71.181 247.817 73.282L247.816 73.2833Z" fill="url(#paint1_linear_110_871)"/>
<path d="M215.463 58.6947C216.516 58.6651 217.572 58.6595 218.625 58.6967C219.548 58.7297 220.003 59.2497 220.006 60.225C220.014 63.5463 220.008 66.8676 220.008 70.1889H220.01V79.7416C220.01 79.9706 220.018 80.2012 219.997 80.4281C219.939 81.0531 219.573 81.4826 218.951 81.5033C217.715 81.5432 216.475 81.5414 215.239 81.5043C214.626 81.4856 214.241 81.0825 214.127 80.4691C214.082 80.2236 214.076 79.9682 214.076 79.7172C214.073 73.3488 214.072 66.981 214.073 60.6127C214.073 60.3617 214.079 60.1056 214.127 59.8607C214.262 59.1682 214.754 58.7147 215.463 58.6947ZM217.065 48.7826C218.927 48.7778 220.469 50.3662 220.472 52.2914C220.474 54.1765 218.965 55.6802 217.064 55.6898C215.108 55.6993 213.59 54.1981 213.612 52.2738C213.634 50.3886 215.219 48.7875 217.065 48.7826Z" fill="#5F38EF"/>
<path d="M215.463 58.6947C216.516 58.6651 217.572 58.6595 218.625 58.6967C219.548 58.7297 220.003 59.2497 220.006 60.225C220.014 63.5463 220.008 66.8676 220.008 70.1889H220.01V79.7416C220.01 79.9706 220.018 80.2012 219.997 80.4281C219.939 81.0531 219.573 81.4826 218.951 81.5033C217.715 81.5432 216.475 81.5414 215.239 81.5043C214.626 81.4856 214.241 81.0825 214.127 80.4691C214.082 80.2236 214.076 79.9682 214.076 79.7172C214.073 73.3488 214.072 66.981 214.073 60.6127C214.073 60.3617 214.079 60.1056 214.127 59.8607C214.262 59.1682 214.754 58.7147 215.463 58.6947ZM217.065 48.7826C218.927 48.7778 220.469 50.3662 220.472 52.2914C220.474 54.1765 218.965 55.6802 217.064 55.6898C215.108 55.6993 213.59 54.1981 213.612 52.2738C213.634 50.3886 215.219 48.7875 217.065 48.7826Z" fill="url(#paint2_linear_110_871)"/>
<defs>
<linearGradient id="paint0_linear_110_871" x1="37.1316" y1="14.4551" x2="37.1316" y2="81.5328" gradientUnits="userSpaceOnUse">
<stop stop-color="#6447F3"/>
<stop offset="1" stop-color="#763DEE"/>
</linearGradient>
<linearGradient id="paint1_linear_110_871" x1="236.645" y1="59.4343" x2="236.645" y2="81.5324" gradientUnits="userSpaceOnUse">
<stop stop-color="#6447F3"/>
<stop offset="1" stop-color="#763DEE"/>
</linearGradient>
<linearGradient id="paint2_linear_110_871" x1="217.042" y1="48.7826" x2="217.042" y2="55.6903" gradientUnits="userSpaceOnUse">
<stop stop-color="#6447F3"/>
<stop offset="1" stop-color="#763DEE"/>
</linearGradient>
</defs>
</svg>
