<svg width="56" height="78" viewBox="0 0 56 78" fill="none" xmlns="http://www.w3.org/2000/svg">
<foreignObject x="2.6226e-06" y="-1.25265" width="55.9803" height="78.6375"><div xmlns="http://www.w3.org/1999/xhtml" style="backdrop-filter:blur(1.57px);clip-path:url(#bgblur_0_143_107_clip_path);height:100%;width:100%"></div></foreignObject><g filter="url(#filter0_dii_143_107)" data-figma-bg-blur-radius="3.13156">
<path d="M41.5089 59.3417C42.4659 59.411 43.3025 60.2237 43.0499 61.2967C42.5137 63.5721 41.3031 65.6762 39.5626 67.3866C37.9994 68.9227 36.0399 70.1216 33.8839 70.8719C33.794 70.9032 33.7044 70.9342 33.6143 70.9637C31.3708 71.6999 29.0102 71.9259 26.7862 71.6083C24.4273 71.2713 22.281 70.3214 20.5899 68.8456H20.5889C19.7565 68.1188 19.9763 66.9707 20.6993 66.3563H20.7003C21.387 65.7735 22.5054 65.6506 23.2403 66.2919C25.5317 68.2918 29.1002 68.9023 32.5792 67.7606C36.1447 66.5889 38.6708 63.9625 39.419 60.787C39.6418 59.8451 40.6082 59.2766 41.5089 59.3417ZM3.76666 11.4159C4.38322 6.57812 11.0795 4.99502 13.5938 9.31236C13.852 9.75539 14.3291 10.9255 14.3292 11.4061V25.8407C15.1161 25.605 15.8599 25.162 16.6378 24.8622C31.2942 19.2063 44.569 32.6317 40.3223 47.369C34.8269 66.4367 5.11791 63.8721 3.75787 43.8514L3.76666 11.4159ZM31.463 40.704C30.2135 32.0618 18.2274 30.6944 14.8409 38.6219C12.0309 45.2006 17.4873 52.407 24.2774 52.8768C24.8246 52.9143 26.4274 53.0588 26.6124 52.4667C26.9705 51.3148 25.9214 51.4742 25.171 51.2352C24.2641 50.9462 22.9436 50.3429 22.6544 49.3846C28.1029 50.9404 32.2142 45.9001 31.463 40.704ZM38.1544 16.1493C39.042 13.9961 41.6991 13.1335 43.7188 14.2508C44.5351 14.7026 45.1489 15.4874 45.4385 16.3827C45.6343 16.0593 45.8744 15.7669 46.169 15.5331C48.2401 13.8892 51.6237 15.5758 52.0479 18.0321C52.1928 18.8714 51.9885 19.6829 51.585 20.4032C51.2273 21.0417 50.7128 21.6085 50.1475 22.0604C48.6531 23.255 46.8096 23.7392 45.4268 25.0858C45.0998 25.4042 44.7839 25.6915 44.4971 26.202C44.3126 26.5305 43.9224 26.5311 43.7208 26.1395C42.9238 24.5915 41.6072 23.4377 40.3878 22.2528C38.7969 20.7069 37.2012 18.461 38.1544 16.1493ZM46.7315 8.2479C47.0811 7.39983 48.1274 7.05985 48.9229 7.49986C49.2445 7.67779 49.4866 7.98708 49.6006 8.3397C49.6777 8.21238 49.7718 8.09681 49.8878 8.00474C50.7035 7.35724 52.0371 8.02164 52.2042 8.98912C52.2612 9.31961 52.1803 9.63908 52.0215 9.92271C51.8806 10.1743 51.6779 10.398 51.4551 10.576C50.8665 11.0465 50.1404 11.2371 49.5958 11.7674C49.467 11.8928 49.3425 12.006 49.2296 12.2069C49.1569 12.3363 49.0033 12.3368 48.9239 12.1825C48.61 11.5727 48.0907 11.1179 47.6104 10.6512C46.984 10.0424 46.3563 9.15818 46.7315 8.2479ZM38.8047 3.55162C38.9729 2.08941 40.9686 1.42112 42.1026 2.22056C42.4901 2.49393 42.7289 2.89445 42.8536 3.33677C42.9641 3.72886 42.9851 4.1542 42.9405 4.55455C42.8225 5.61303 42.2877 6.52993 42.2735 7.60435C42.2701 7.85823 42.2588 8.09548 42.3467 8.40904C42.4034 8.61097 42.2501 8.76496 42.0167 8.69029C41.0935 8.39465 40.1204 8.45893 39.1739 8.47251C37.9392 8.49016 36.4274 8.23407 35.8926 6.94908C35.3944 5.75201 36.101 4.36576 37.336 4.0106C37.835 3.86716 38.3853 3.93539 38.8516 4.17369C38.8014 3.96938 38.7808 3.75957 38.8047 3.55162Z" fill="white" fill-opacity="0.25" shape-rendering="crispEdges"/>
</g>
<defs>
<filter id="filter0_dii_143_107" x="2.6226e-06" y="-1.25265" width="55.9803" height="78.6375" filterUnits="userSpaceOnUse" color-interpolation-filters="sRGB">
<feFlood flood-opacity="0" result="BackgroundImageFix"/>
<feColorMatrix in="SourceAlpha" type="matrix" values="0 0 0 0 0 0 0 0 0 0 0 0 0 0 0 0 0 0 127 0" result="hardAlpha"/>
<feOffset dy="1.87894"/>
<feGaussianBlur stdDeviation="1.87894"/>
<feComposite in2="hardAlpha" operator="out"/>
<feColorMatrix type="matrix" values="0 0 0 0 0.294118 0 0 0 0 0.121569 0 0 0 0 0.709804 0 0 0 0.25 0"/>
<feBlend mode="normal" in2="BackgroundImageFix" result="effect1_dropShadow_143_107"/>
<feBlend mode="normal" in="SourceGraphic" in2="effect1_dropShadow_143_107" result="shape"/>
<feColorMatrix in="SourceAlpha" type="matrix" values="0 0 0 0 0 0 0 0 0 0 0 0 0 0 0 0 0 0 127 0" result="hardAlpha"/>
<feOffset dy="0.104385"/>
<feGaussianBlur stdDeviation="0.626312"/>
<feComposite in2="hardAlpha" operator="arithmetic" k2="-1" k3="1"/>
<feColorMatrix type="matrix" values="0 0 0 0 1 0 0 0 0 1 0 0 0 0 1 0 0 0 0.45 0"/>
<feBlend mode="normal" in2="shape" result="effect2_innerShadow_143_107"/>
<feColorMatrix in="SourceAlpha" type="matrix" values="0 0 0 0 0 0 0 0 0 0 0 0 0 0 0 0 0 0 127 0" result="hardAlpha"/>
<feOffset dy="-1.25262"/>
<feGaussianBlur stdDeviation="1.25262"/>
<feComposite in2="hardAlpha" operator="arithmetic" k2="-1" k3="1"/>
<feColorMatrix type="matrix" values="0 0 0 0 0.294118 0 0 0 0 0.121569 0 0 0 0 0.709804 0 0 0 0.18 0"/>
<feBlend mode="normal" in2="effect2_innerShadow_143_107" result="effect3_innerShadow_143_107"/>
</filter>
<clipPath id="bgblur_0_143_107_clip_path" transform="translate(-2.6226e-06 1.25265)"><path d="M41.5089 59.3417C42.4659 59.411 43.3025 60.2237 43.0499 61.2967C42.5137 63.5721 41.3031 65.6762 39.5626 67.3866C37.9994 68.9227 36.0399 70.1216 33.8839 70.8719C33.794 70.9032 33.7044 70.9342 33.6143 70.9637C31.3708 71.6999 29.0102 71.9259 26.7862 71.6083C24.4273 71.2713 22.281 70.3214 20.5899 68.8456H20.5889C19.7565 68.1188 19.9763 66.9707 20.6993 66.3563H20.7003C21.387 65.7735 22.5054 65.6506 23.2403 66.2919C25.5317 68.2918 29.1002 68.9023 32.5792 67.7606C36.1447 66.5889 38.6708 63.9625 39.419 60.787C39.6418 59.8451 40.6082 59.2766 41.5089 59.3417ZM3.76666 11.4159C4.38322 6.57812 11.0795 4.99502 13.5938 9.31236C13.852 9.75539 14.3291 10.9255 14.3292 11.4061V25.8407C15.1161 25.605 15.8599 25.162 16.6378 24.8622C31.2942 19.2063 44.569 32.6317 40.3223 47.369C34.8269 66.4367 5.11791 63.8721 3.75787 43.8514L3.76666 11.4159ZM31.463 40.704C30.2135 32.0618 18.2274 30.6944 14.8409 38.6219C12.0309 45.2006 17.4873 52.407 24.2774 52.8768C24.8246 52.9143 26.4274 53.0588 26.6124 52.4667C26.9705 51.3148 25.9214 51.4742 25.171 51.2352C24.2641 50.9462 22.9436 50.3429 22.6544 49.3846C28.1029 50.9404 32.2142 45.9001 31.463 40.704ZM38.1544 16.1493C39.042 13.9961 41.6991 13.1335 43.7188 14.2508C44.5351 14.7026 45.1489 15.4874 45.4385 16.3827C45.6343 16.0593 45.8744 15.7669 46.169 15.5331C48.2401 13.8892 51.6237 15.5758 52.0479 18.0321C52.1928 18.8714 51.9885 19.6829 51.585 20.4032C51.2273 21.0417 50.7128 21.6085 50.1475 22.0604C48.6531 23.255 46.8096 23.7392 45.4268 25.0858C45.0998 25.4042 44.7839 25.6915 44.4971 26.202C44.3126 26.5305 43.9224 26.5311 43.7208 26.1395C42.9238 24.5915 41.6072 23.4377 40.3878 22.2528C38.7969 20.7069 37.2012 18.461 38.1544 16.1493ZM46.7315 8.2479C47.0811 7.39983 48.1274 7.05985 48.9229 7.49986C49.2445 7.67779 49.4866 7.98708 49.6006 8.3397C49.6777 8.21238 49.7718 8.09681 49.8878 8.00474C50.7035 7.35724 52.0371 8.02164 52.2042 8.98912C52.2612 9.31961 52.1803 9.63908 52.0215 9.92271C51.8806 10.1743 51.6779 10.398 51.4551 10.576C50.8665 11.0465 50.1404 11.2371 49.5958 11.7674C49.467 11.8928 49.3425 12.006 49.2296 12.2069C49.1569 12.3363 49.0033 12.3368 48.9239 12.1825C48.61 11.5727 48.0907 11.1179 47.6104 10.6512C46.984 10.0424 46.3563 9.15818 46.7315 8.2479ZM38.8047 3.55162C38.9729 2.08941 40.9686 1.42112 42.1026 2.22056C42.4901 2.49393 42.7289 2.89445 42.8536 3.33677C42.9641 3.72886 42.9851 4.1542 42.9405 4.55455C42.8225 5.61303 42.2877 6.52993 42.2735 7.60435C42.2701 7.85823 42.2588 8.09548 42.3467 8.40904C42.4034 8.61097 42.2501 8.76496 42.0167 8.69029C41.0935 8.39465 40.1204 8.45893 39.1739 8.47251C37.9392 8.49016 36.4274 8.23407 35.8926 6.94908C35.3944 5.75201 36.101 4.36576 37.336 4.0106C37.835 3.86716 38.3853 3.93539 38.8516 4.17369C38.8014 3.96938 38.7808 3.75957 38.8047 3.55162Z"/>
</clipPath></defs>
</svg>
