<svg width="84" height="84" viewBox="0 0 84 84" fill="none" xmlns="http://www.w3.org/2000/svg">
<path d="M31.209 10.233C48.4453 4.58159 67.0001 13.9727 72.6517 31.2089C78.3032 48.4454 68.9114 67.0005 51.6749 72.652C47.1177 74.1461 42.4686 74.586 37.99 74.1099C37.6619 74.075 37.331 74.153 37.057 74.3369L24.9803 82.4403C24.0363 83.0737 22.7753 82.3529 22.842 81.2181L23.5137 69.7896C23.5427 69.2958 23.3029 68.8264 22.8945 68.5473C17.1333 64.6113 12.5747 58.8172 10.2328 51.6748C4.58161 34.4386 13.9729 15.8847 31.209 10.233Z" fill="white"/>
<path d="M31.209 10.233C48.4453 4.58159 67.0001 13.9727 72.6517 31.2089C78.3032 48.4454 68.9114 67.0005 51.6749 72.652C47.1177 74.1461 42.4686 74.586 37.99 74.1099C37.6619 74.075 37.331 74.153 37.057 74.3369L24.9803 82.4403C24.0363 83.0737 22.7753 82.3529 22.842 81.2181L23.5137 69.7896C23.5427 69.2958 23.3029 68.8264 22.8945 68.5473C17.1333 64.6113 12.5747 58.8172 10.2328 51.6748C4.58161 34.4386 13.9729 15.8847 31.209 10.233Z" fill="url(#paint0_linear_151_418)"/>
<rect x="24.2693" y="40.0737" width="31.7837" height="4.35227" rx="2.17614" transform="rotate(-18.1533 24.2693 40.0737)" fill="white"/>
<rect x="27.381" y="49.5645" width="26.877" height="4.35227" rx="2.17614" transform="rotate(-18.1533 27.381 49.5645)" fill="white"/>
<defs>
<linearGradient id="paint0_linear_151_418" x1="0.769948" y1="22.8141" x2="85.4113" y2="29.9433" gradientUnits="userSpaceOnUse">
<stop stop-color="#FDA0EE"/>
<stop offset="0.475962" stop-color="#973CEC"/>
<stop offset="1" stop-color="#6C63F7"/>
</linearGradient>
</defs>
</svg>
