<svg width="620" height="699" viewBox="0 0 620 699" fill="none" xmlns="http://www.w3.org/2000/svg">
<path d="M227.058 352.345L256.292 263.693L88.1597 208.249L265.297 50.1515L452.803 196.769L489.239 494.456L260.799 698.342" stroke="#7C37D9" stroke-opacity="0.25" stroke-linecap="round" stroke-linejoin="round" stroke-dasharray="2 4 6 8"/>
<circle cx="4.25634" cy="4.25634" r="4.25634" transform="matrix(0.892984 -0.450088 -0.450088 -0.892984 225.275 357.247)" fill="#B177FF"/>
<circle cx="4.25634" cy="4.25634" r="4.25634" transform="matrix(0.892984 -0.450088 -0.450088 -0.892984 252.9 270.155)" fill="#B177FF"/>
<circle cx="4.25634" cy="4.25634" r="4.25634" transform="matrix(0.892984 -0.450088 -0.450088 -0.892984 453.62 206.778)" fill="#B177FF"/>
<circle cx="4.25634" cy="4.25634" r="4.25634" transform="matrix(0.892984 -0.450088 -0.450088 -0.892984 89.1465 214.389)" fill="#B177FF"/>
<circle cx="4.25634" cy="4.25634" r="4.25634" transform="matrix(0.892984 -0.450088 -0.450088 -0.892984 264.14 57.3107)" fill="#B177FF"/>
<circle cx="4.25634" cy="4.25634" r="4.25634" transform="matrix(0.892984 -0.450088 -0.450088 -0.892984 484.416 499.257)" fill="#B177FF"/>
</svg>
