<svg width="83" height="83" viewBox="0 0 83 83" fill="none" xmlns="http://www.w3.org/2000/svg">
<g filter="url(#filter0_dd_143_84)">
<g filter="url(#filter1_dd_143_84)">
<rect x="7.87628" y="17.4795" width="57.918" height="57.918" rx="11.192" transform="rotate(-9.5441 7.87628 17.4795)" fill="white"/>
</g>
<mask id="path-2-inside-1_143_84" fill="white">
<path d="M34.5081 43.7879L34.1214 44.331L36.8365 46.2645L39.5435 42.4633L40.6296 43.2367L37.9226 47.0379L40.6377 48.9715L41.0244 48.4284C41.7493 47.413 42.8068 46.6834 44.0134 46.3662C45.22 46.0489 46.4995 46.1641 47.6301 46.6916L52.2095 26.9757L46.0048 35.6886C46.5682 36.2927 46.8873 37.0844 46.9002 37.9103C46.913 38.7363 46.6187 39.5376 46.0744 40.1588C45.53 40.7801 44.7743 41.1772 43.9539 41.273C43.1334 41.3688 42.3066 41.1565 41.6338 40.6773C40.9609 40.1982 40.4899 39.4862 40.3122 38.6796C40.1344 37.8729 40.2625 37.0289 40.6716 36.3113C41.0807 35.5937 41.7417 35.0536 42.5264 34.7956C43.3111 34.5377 44.1637 34.5803 44.9187 34.9152L51.1235 26.2023L33.9892 36.9775C34.8575 37.8734 35.3847 39.0449 35.4795 40.2889C35.5743 41.5329 35.2306 42.7708 34.5081 43.7879Z"/>
</mask>
<path d="M34.5081 43.7879L39.2512 47.1657L39.2552 47.1601L34.5081 43.7879ZM34.1214 44.331L29.3783 40.9532L26.0005 45.6964L30.7437 49.0741L34.1214 44.331ZM36.8365 46.2645L33.4588 51.0076L38.2019 54.3854L41.5797 49.6422L36.8365 46.2645ZM39.5435 42.4633L42.9212 37.7202L38.1781 34.3424L34.8004 39.0856L39.5435 42.4633ZM40.6296 43.2367L45.3727 46.6145L48.7504 41.8713L44.0073 38.4936L40.6296 43.2367ZM37.9226 47.0379L33.1795 43.6602L29.8017 48.4033L34.5449 51.7811L37.9226 47.0379ZM40.6377 48.9715L37.26 53.7146L42.0031 57.0923L45.3809 52.3492L40.6377 48.9715ZM41.0244 48.4284L36.2853 45.0452L36.2813 45.0507L41.0244 48.4284ZM47.6301 46.6916L45.1679 51.9683L51.677 55.0056L53.302 48.009L47.6301 46.6916ZM52.2095 26.9757L57.8815 28.2931L47.4664 23.598L52.2095 26.9757ZM46.0048 35.6886L41.2617 32.3109L38.5038 36.1836L41.7467 39.6604L46.0048 35.6886ZM44.9187 34.9152L42.5579 40.238L46.904 42.1657L49.6619 38.2929L44.9187 34.9152ZM51.1235 26.2023L55.8666 29.58L48.0237 21.2731L51.1235 26.2023ZM33.9892 36.9775L30.8894 32.0482L24.809 35.872L29.8078 41.0299L33.9892 36.9775ZM34.5081 43.7879L29.765 40.4102L29.3783 40.9532L34.1214 44.331L38.8645 47.7087L39.2512 47.1657L34.5081 43.7879ZM34.1214 44.331L30.7437 49.0741L33.4588 51.0076L36.8365 46.2645L40.2143 41.5214L37.4991 39.5878L34.1214 44.331ZM36.8365 46.2645L41.5797 49.6422L44.2866 45.841L39.5435 42.4633L34.8004 39.0856L32.0934 42.8868L36.8365 46.2645ZM39.5435 42.4633L36.1658 47.2064L37.2518 47.9799L40.6296 43.2367L44.0073 38.4936L42.9212 37.7202L39.5435 42.4633ZM40.6296 43.2367L35.8864 39.859L33.1795 43.6602L37.9226 47.0379L42.6657 50.4157L45.3727 46.6145L40.6296 43.2367ZM37.9226 47.0379L34.5449 51.7811L37.26 53.7146L40.6377 48.9715L44.0155 44.2283L41.3003 42.2948L37.9226 47.0379ZM40.6377 48.9715L45.3809 52.3492L45.7676 51.8062L41.0244 48.4284L36.2813 45.0507L35.8946 45.5937L40.6377 48.9715ZM41.0244 48.4284L45.7636 51.8117C45.6983 51.9033 45.6029 51.9691 45.4941 51.9977L44.0134 46.3662L42.5327 40.7347C40.0107 41.3978 37.8004 42.9228 36.2853 45.0452L41.0244 48.4284ZM44.0134 46.3662L45.4941 51.9977C45.3853 52.0263 45.2699 52.0159 45.1679 51.9683L47.6301 46.6916L50.0923 41.4149C47.7292 40.3122 45.0547 40.0716 42.5327 40.7347L44.0134 46.3662ZM47.6301 46.6916L53.302 48.009L57.8815 28.2931L52.2095 26.9757L46.5376 25.6583L41.9582 45.3742L47.6301 46.6916ZM52.2095 26.9757L47.4664 23.598L41.2617 32.3109L46.0048 35.6886L50.7479 39.0663L56.9527 30.3534L52.2095 26.9757ZM46.0048 35.6886L41.7467 39.6604C41.3259 39.2092 41.0875 38.6178 41.0779 38.0009L46.9002 37.9103L52.7224 37.8198C52.6871 35.551 51.8106 33.3761 50.2629 31.7169L46.0048 35.6886ZM46.9002 37.9103L41.0779 38.0009C41.0683 37.384 41.2881 36.7855 41.6947 36.3215L46.0744 40.1588L50.454 43.9962C51.9493 42.2896 52.7577 40.0885 52.7224 37.8198L46.9002 37.9103ZM46.0744 40.1588L41.6947 36.3215C42.1013 35.8574 42.6657 35.5609 43.2786 35.4893L43.9539 41.273L44.6292 47.0566C46.8829 46.7934 48.9587 45.7028 50.454 43.9962L46.0744 40.1588ZM43.9539 41.273L43.2786 35.4893C43.8914 35.4178 44.5089 35.5763 45.0115 35.9342L41.6338 40.6773L38.256 45.4205C40.1043 46.7367 42.3754 47.3197 44.6292 47.0566L43.9539 41.273ZM41.6338 40.6773L45.0115 35.9342C45.514 36.2921 45.8658 36.8238 45.9986 37.4264L40.3122 38.6796L34.6257 39.9328C35.114 42.1486 36.4077 44.1043 38.256 45.4205L41.6338 40.6773ZM40.3122 38.6796L45.9986 37.4264C46.1314 38.0289 46.0357 38.6593 45.7302 39.1952L40.6716 36.3113L35.613 33.4274C34.4892 35.3986 34.1373 37.7169 34.6257 39.9328L40.3122 38.6796ZM40.6716 36.3113L45.7302 39.1952C45.4246 39.7312 44.9309 40.1347 44.3448 40.3273L42.5264 34.7956L40.708 29.2639C38.5524 29.9725 36.7367 31.4562 35.613 33.4274L40.6716 36.3113ZM42.5264 34.7956L44.3448 40.3273C43.7587 40.52 43.1219 40.4882 42.5579 40.238L44.9187 34.9152L47.2796 29.5923C45.2054 28.6724 42.8636 28.5553 40.708 29.2639L42.5264 34.7956ZM44.9187 34.9152L49.6619 38.2929L55.8666 29.58L51.1235 26.2023L46.3804 22.8246L40.1756 31.5375L44.9187 34.9152ZM51.1235 26.2023L48.0237 21.2731L30.8894 32.0482L33.9892 36.9775L37.0891 41.9067L54.2233 31.1315L51.1235 26.2023ZM33.9892 36.9775L29.8078 41.0299C29.7295 40.9491 29.682 40.8435 29.6734 40.7313L35.4795 40.2889L41.2856 39.8466C41.0875 37.2464 39.9854 34.7976 38.1706 32.925L33.9892 36.9775ZM35.4795 40.2889L29.6734 40.7313C29.6649 40.6191 29.6959 40.5075 29.761 40.4157L34.5081 43.7879L39.2552 47.1601C40.7654 45.0342 41.4837 42.4468 41.2856 39.8466L35.4795 40.2889Z" fill="url(#paint0_linear_143_84)" fill-opacity="0.5" mask="url(#path-2-inside-1_143_84)"/>
<path d="M42.4067 39.5921C43.3065 40.2329 44.5552 40.0229 45.196 39.1232C45.8367 38.2234 45.6267 36.9747 44.727 36.334C43.8273 35.6932 42.5785 35.9032 41.9378 36.8029C41.2971 37.7026 41.507 38.9514 42.4067 39.5921Z" fill="#BEA4F1"/>
<path d="M35.3432 53.6856L34.4669 54.9162L32.6938 53.6535L33.5701 52.423L35.3432 53.6856Z" stroke="url(#paint1_linear_143_84)" stroke-opacity="0.5" stroke-width="5.82292"/>
<mask id="path-6-inside-2_143_84" fill="white">
<path d="M42.0364 51.6043L31.1758 43.8701C31.0318 43.7675 30.853 43.7264 30.6786 43.7557C30.5042 43.785 30.3487 43.8824 30.2461 44.0264C30.1435 44.1704 30.1024 44.3493 30.1317 44.5237C30.161 44.698 30.2584 44.8536 30.4024 44.9562L41.263 52.6903C41.407 52.7929 41.5859 52.8341 41.7603 52.8047C41.9346 52.7754 42.0902 52.678 42.1928 52.534C42.2953 52.39 42.3365 52.2111 42.3071 52.0368C42.2778 51.8624 42.1804 51.7068 42.0364 51.6043Z"/>
</mask>
<path d="M42.0364 51.6043L45.4142 46.8612L34.5536 39.127L31.1758 43.8701L27.7981 48.6132L38.6587 56.3474L42.0364 51.6043ZM31.1758 43.8701L34.5536 39.127C33.1516 38.1286 31.4105 37.728 29.7131 38.0134L30.6786 43.7557L31.6441 49.498C30.2955 49.7248 28.912 49.4065 27.7981 48.6132L31.1758 43.8701ZM30.6786 43.7557L29.7131 38.0134C28.0158 38.2988 26.5014 39.2467 25.503 40.6487L30.2461 44.0264L34.9892 47.4042C34.196 48.5181 32.9927 49.2713 31.6441 49.498L30.6786 43.7557ZM30.2461 44.0264L25.503 40.6487C24.5046 42.0507 24.104 43.7918 24.3894 45.4892L30.1317 44.5237L35.874 43.5582C36.1008 44.9068 35.7825 46.2902 34.9892 47.4042L30.2461 44.0264ZM30.1317 44.5237L24.3894 45.4892C24.6748 47.1865 25.6227 48.7009 27.0247 49.6993L30.4024 44.9562L33.7802 40.213C34.8941 41.0063 35.6473 42.2096 35.874 43.5582L30.1317 44.5237ZM30.4024 44.9562L27.0247 49.6993L37.8853 57.4335L41.263 52.6903L44.6407 47.9472L33.7802 40.213L30.4024 44.9562ZM41.263 52.6903L37.8853 57.4335C39.2872 58.4319 41.0284 58.8324 42.7257 58.5471L41.7603 52.8047L40.7948 47.0624C42.1434 46.8357 43.5268 47.154 44.6407 47.9472L41.263 52.6903ZM41.7603 52.8047L42.7257 58.5471C44.4231 58.2617 45.9375 57.3137 46.9359 55.9118L42.1927 52.534L37.4496 49.1563C38.2429 48.0424 39.4462 47.2892 40.7948 47.0624L41.7603 52.8047ZM42.1927 52.534L46.9359 55.9118C47.9343 54.5098 48.3348 52.7686 48.0495 51.0713L42.3071 52.0368L36.5648 53.0023C36.3381 51.6536 36.6564 50.2702 37.4496 49.1563L42.1927 52.534ZM42.3071 52.0368L48.0495 51.0713C47.7641 49.374 46.8161 47.8595 45.4142 46.8612L42.0364 51.6043L38.6587 56.3474C37.5448 55.5542 36.7916 54.3509 36.5648 53.0023L42.3071 52.0368Z" fill="url(#paint2_linear_143_84)" fill-opacity="0.5" mask="url(#path-6-inside-2_143_84)"/>
</g>
<defs>
<filter id="filter0_dd_143_84" x="-2.39611e-05" y="-0.000146031" width="82.4721" height="82.4725" filterUnits="userSpaceOnUse" color-interpolation-filters="sRGB">
<feFlood flood-opacity="0" result="BackgroundImageFix"/>
<feColorMatrix in="SourceAlpha" type="matrix" values="0 0 0 0 0 0 0 0 0 0 0 0 0 0 0 0 0 0 127 0" result="hardAlpha"/>
<feOffset dx="-1.74097" dy="-1.74097"/>
<feGaussianBlur stdDeviation="3.91719"/>
<feComposite in2="hardAlpha" operator="out"/>
<feColorMatrix type="matrix" values="0 0 0 0 0.596078 0 0 0 0 0.184314 0 0 0 0 0.980392 0 0 0 0.05 0"/>
<feBlend mode="normal" in2="BackgroundImageFix" result="effect1_dropShadow_143_84"/>
<feColorMatrix in="SourceAlpha" type="matrix" values="0 0 0 0 0 0 0 0 0 0 0 0 0 0 0 0 0 0 127 0" result="hardAlpha"/>
<feOffset dx="1.74097" dy="1.74097"/>
<feGaussianBlur stdDeviation="3.91719"/>
<feComposite in2="hardAlpha" operator="out"/>
<feColorMatrix type="matrix" values="0 0 0 0 0.597089 0 0 0 0 0.183894 0 0 0 0 0.980769 0 0 0 0.05 0"/>
<feBlend mode="normal" in2="effect1_dropShadow_143_84" result="effect2_dropShadow_143_84"/>
<feBlend mode="normal" in="SourceGraphic" in2="effect2_dropShadow_143_84" result="shape"/>
</filter>
<filter id="filter1_dd_143_84" x="-2.39611e-05" y="-0.000146031" width="82.4721" height="82.4725" filterUnits="userSpaceOnUse" color-interpolation-filters="sRGB">
<feFlood flood-opacity="0" result="BackgroundImageFix"/>
<feColorMatrix in="SourceAlpha" type="matrix" values="0 0 0 0 0 0 0 0 0 0 0 0 0 0 0 0 0 0 127 0" result="hardAlpha"/>
<feOffset dx="-1.74097" dy="-1.74097"/>
<feGaussianBlur stdDeviation="3.91719"/>
<feComposite in2="hardAlpha" operator="out"/>
<feColorMatrix type="matrix" values="0 0 0 0 0.596078 0 0 0 0 0.184314 0 0 0 0 0.980392 0 0 0 0.05 0"/>
<feBlend mode="normal" in2="BackgroundImageFix" result="effect1_dropShadow_143_84"/>
<feColorMatrix in="SourceAlpha" type="matrix" values="0 0 0 0 0 0 0 0 0 0 0 0 0 0 0 0 0 0 127 0" result="hardAlpha"/>
<feOffset dx="1.74097" dy="1.74097"/>
<feGaussianBlur stdDeviation="3.91719"/>
<feComposite in2="hardAlpha" operator="out"/>
<feColorMatrix type="matrix" values="0 0 0 0 0.597089 0 0 0 0 0.183894 0 0 0 0 0.980769 0 0 0 0.05 0"/>
<feBlend mode="normal" in2="effect1_dropShadow_143_84" result="effect2_dropShadow_143_84"/>
<feBlend mode="normal" in="SourceGraphic" in2="effect2_dropShadow_143_84" result="shape"/>
</filter>
<linearGradient id="paint0_linear_143_84" x1="44.3169" y1="22.475" x2="54.1324" y2="47.7876" gradientUnits="userSpaceOnUse">
<stop stop-color="#E896DB"/>
<stop offset="0.475962" stop-color="#923BE3"/>
<stop offset="1" stop-color="#635BE4"/>
</linearGradient>
<linearGradient id="paint1_linear_143_84" x1="30.5575" y1="47.0371" x2="30.5429" y2="59.0248" gradientUnits="userSpaceOnUse">
<stop stop-color="#E896DB"/>
<stop offset="0.475962" stop-color="#923BE3"/>
<stop offset="1" stop-color="#635BE4"/>
</linearGradient>
<linearGradient id="paint2_linear_143_84" x1="30.6042" y1="43.5236" x2="29.2697" y2="45.8266" gradientUnits="userSpaceOnUse">
<stop stop-color="#E896DB"/>
<stop offset="0.475962" stop-color="#923BE3"/>
<stop offset="1" stop-color="#635BE4"/>
</linearGradient>
</defs>
</svg>
