<svg width="171" height="166" viewBox="0 0 171 166" fill="none" xmlns="http://www.w3.org/2000/svg">
<g filter="url(#filter0_dd_137_403)">
<g clip-path="url(#clip0_137_403)">
<rect x="26.5287" y="11.9116" width="133.03" height="127.345" rx="8.52754" transform="rotate(6.59113 26.5287 11.9116)" fill="white"/>
<rect x="27.2099" y="107.546" width="107.391" height="7.19622" rx="3.59811" transform="rotate(6.59113 27.2099 107.546)" fill="#F8F5FF"/>
<rect x="27.2099" y="107.546" width="88.1345" height="7.19622" rx="3.59811" transform="rotate(6.59113 27.2099 107.546)" fill="#F0EBFB"/>
<rect x="25.7142" y="120.49" width="73.257" height="7.19622" rx="3.59811" transform="rotate(6.59113 25.7142 120.49)" fill="#F0EBFB"/>
<rect x="36.6322" y="26.0005" width="109.722" height="71.1475" rx="5.8333" transform="rotate(6.59113 36.6322 26.0005)" fill="#D9D9D9"/>
<rect x="36.6322" y="26.0005" width="109.722" height="71.1475" rx="5.8333" transform="rotate(6.59113 36.6322 26.0005)" fill="url(#paint0_linear_137_403)"/>
<foreignObject x="30.5771" y="30.8504" width="111.584" height="78.3894"><div xmlns="http://www.w3.org/1999/xhtml" style="backdrop-filter:blur(7.46px);clip-path:url(#bgblur_1_137_403_clip_path);height:100%;width:100%"></div></foreignObject><g filter="url(#filter1_dii_137_403)" data-figma-bg-blur-radius="14.9113">
<path d="M49.3551 74.8847C49.9681 74.7256 50.6946 74.9961 50.9502 75.5949C51.9466 77.9302 54.3934 79.6607 57.3757 80.0592C60.4339 80.4667 63.2633 79.4281 64.9716 77.3212C65.3804 76.8174 66.1506 76.7429 66.6997 77.0589C67.2736 77.3892 67.5204 78.1154 67.0687 78.6724C65.9136 80.097 64.3384 81.1733 62.5187 81.7899C60.8836 82.344 59.0802 82.5231 57.2889 82.3161C57.2142 82.3075 57.1395 82.2983 57.0651 82.2883C55.2163 82.0412 53.4628 81.3915 51.9948 80.4048C50.4384 79.3587 49.2467 77.954 48.5571 76.3378C48.2756 75.678 48.7185 75.0501 49.3551 74.8847ZM54.2167 81.1354C54.4198 81.2174 54.626 81.2942 54.835 81.3651L54.836 81.3652C54.6267 81.2942 54.4201 81.2174 54.2167 81.1354ZM62.3919 81.4155C62.3038 81.4453 62.2153 81.4742 62.1263 81.5018L62.3918 81.4164C62.496 81.3811 62.599 81.3432 62.7015 81.3048C62.5992 81.3431 62.496 81.3802 62.3919 81.4155ZM57.9632 80.5135C58.0841 80.5217 58.2046 80.5284 58.3247 80.5326C58.2046 80.5284 58.0842 80.5217 57.9632 80.5135ZM73.9058 60.0411C76.1896 58.1711 79.3398 57.4754 82.2134 58.2907C84.5731 58.9604 84.8065 62.1297 82.5391 62.9841C81.5619 63.3522 80.7414 62.9799 79.7666 62.8673C77.7841 62.6382 75.8623 64.3283 75.6443 66.2141C75.3799 68.5021 75.0369 71.1045 74.7747 73.3735C74.4459 76.2148 69.4486 75.8272 69.8126 72.6723C70.3528 67.9974 69.8926 63.3275 73.9058 60.0411ZM89.2038 58.9294C90.5769 59.0883 91.5612 60.33 91.4029 61.703L90.1754 72.3267C89.858 75.0736 87.3739 77.0431 84.6269 76.7257L86.4292 61.1283C86.5882 59.7552 87.8306 58.7707 89.2038 58.9294ZM98.5967 55.5712C100.839 53.7108 103.929 53.0158 106.746 53.8213C109.059 54.4829 109.283 57.6299 107.059 58.4817C106.197 58.8117 105.46 58.5479 104.625 58.4109C104.243 58.4058 103.852 58.3959 103.427 58.4965C101.895 58.8599 100.596 60.2864 100.226 61.7984C100.177 61.998 100.092 62.419 100.04 62.7315L102.644 63.0324C103.995 63.1885 104.965 64.4105 104.809 65.7618C104.653 67.1131 103.431 68.0826 102.079 67.9267L99.4669 67.6248L98.4959 76.0289C97.8691 79.0078 93.3275 78.5546 93.4909 75.3247C94.1127 71.0566 94.483 66.7224 95.11 62.4607C95.1287 62.3322 95.1443 62.2034 95.1653 62.0758C95.1799 61.9789 95.1938 61.8818 95.2087 61.785C95.4278 60.365 95.8731 59.0707 96.5676 57.9281C96.5963 57.8798 96.6263 57.832 96.656 57.784C96.6846 57.7389 96.7121 57.693 96.7415 57.6484C97.2179 56.9104 97.8222 56.214 98.5967 55.5712ZM109.42 63.781C115.356 59.0405 124.146 63.2862 124.266 70.8029C124.388 78.44 115.804 82.8562 109.61 78.3964C104.719 74.8743 104.756 67.5055 109.42 63.781ZM51.6743 47.8029C52.2696 45.3889 55.7533 44.9792 56.774 47.3128C56.8789 47.5525 57.0522 48.1729 57.024 48.4162L56.1794 55.7259C56.5917 55.6526 56.9943 55.4716 57.4057 55.3653C65.1591 53.3588 71.096 60.9351 68.083 68.15C64.184 77.4846 49.2887 74.4469 49.7715 64.2282L51.6743 47.8029ZM63.9863 64.2556C63.859 59.8062 57.8696 58.4124 55.6906 62.2284C53.8825 65.3956 56.2239 69.3648 59.6351 70.0001C59.91 70.0511 60.7132 70.2181 60.8417 69.9292C61.0904 69.3669 60.5503 69.3859 60.1842 69.2211C59.7419 69.0217 59.1083 68.6389 59.0178 68.1367L59.2665 68.2303C61.8318 69.0986 64.0603 66.8475 63.9863 64.2556ZM115.078 66.738L115.078 66.7371C112.42 66.7017 110.385 69.3502 110.931 71.9144C111.686 75.458 116.255 76.4696 118.47 73.6201C120.648 70.8162 118.578 66.7846 115.078 66.738ZM90.0513 51.5953C91.4003 51.7514 92.3673 52.9713 92.2117 54.3203C92.0558 55.6696 90.8359 56.6375 89.4866 56.4818C88.1373 56.3258 87.1694 55.1051 87.3253 53.7557C87.4815 52.4066 88.7021 51.4395 90.0513 51.5953Z" fill="white" fill-opacity="0.25" shape-rendering="crispEdges"/>
</g>
</g>
<rect x="26.968" y="12.4657" width="132.03" height="126.345" rx="8.02754" transform="rotate(6.59113 26.968 12.4657)" stroke="url(#paint1_linear_137_403)" stroke-opacity="0.5"/>
</g>
<defs>
<filter id="filter0_dd_137_403" x="-0.921656" y="-0.921641" width="172.434" height="167.439" filterUnits="userSpaceOnUse" color-interpolation-filters="sRGB">
<feFlood flood-opacity="0" result="BackgroundImageFix"/>
<feColorMatrix in="SourceAlpha" type="matrix" values="0 0 0 0 0 0 0 0 0 0 0 0 0 0 0 0 0 0 127 0" result="hardAlpha"/>
<feOffset dx="-2.33332" dy="-2.33332"/>
<feGaussianBlur stdDeviation="5.24997"/>
<feComposite in2="hardAlpha" operator="out"/>
<feColorMatrix type="matrix" values="0 0 0 0 0.596078 0 0 0 0 0.184314 0 0 0 0 0.980392 0 0 0 0.05 0"/>
<feBlend mode="normal" in2="BackgroundImageFix" result="effect1_dropShadow_137_403"/>
<feColorMatrix in="SourceAlpha" type="matrix" values="0 0 0 0 0 0 0 0 0 0 0 0 0 0 0 0 0 0 127 0" result="hardAlpha"/>
<feOffset dx="2.33332" dy="2.33332"/>
<feGaussianBlur stdDeviation="5.24997"/>
<feComposite in2="hardAlpha" operator="out"/>
<feColorMatrix type="matrix" values="0 0 0 0 0.597089 0 0 0 0 0.183894 0 0 0 0 0.980769 0 0 0 0.05 0"/>
<feBlend mode="normal" in2="effect1_dropShadow_137_403" result="effect2_dropShadow_137_403"/>
<feBlend mode="normal" in="SourceGraphic" in2="effect2_dropShadow_137_403" result="shape"/>
</filter>
<filter id="filter1_dii_137_403" x="30.5771" y="30.8504" width="111.584" height="78.3894" filterUnits="userSpaceOnUse" color-interpolation-filters="sRGB">
<feFlood flood-opacity="0" result="BackgroundImageFix"/>
<feColorMatrix in="SourceAlpha" type="matrix" values="0 0 0 0 0 0 0 0 0 0 0 0 0 0 0 0 0 0 127 0" result="hardAlpha"/>
<feOffset dy="8.9468"/>
<feGaussianBlur stdDeviation="8.9468"/>
<feComposite in2="hardAlpha" operator="out"/>
<feColorMatrix type="matrix" values="0 0 0 0 0.294118 0 0 0 0 0.121569 0 0 0 0 0.709804 0 0 0 0.25 0"/>
<feBlend mode="normal" in2="BackgroundImageFix" result="effect1_dropShadow_137_403"/>
<feBlend mode="normal" in="SourceGraphic" in2="effect1_dropShadow_137_403" result="shape"/>
<feColorMatrix in="SourceAlpha" type="matrix" values="0 0 0 0 0 0 0 0 0 0 0 0 0 0 0 0 0 0 127 0" result="hardAlpha"/>
<feOffset dy="0.497045"/>
<feGaussianBlur stdDeviation="2.98227"/>
<feComposite in2="hardAlpha" operator="arithmetic" k2="-1" k3="1"/>
<feColorMatrix type="matrix" values="0 0 0 0 1 0 0 0 0 1 0 0 0 0 1 0 0 0 0.45 0"/>
<feBlend mode="normal" in2="shape" result="effect2_innerShadow_137_403"/>
<feColorMatrix in="SourceAlpha" type="matrix" values="0 0 0 0 0 0 0 0 0 0 0 0 0 0 0 0 0 0 127 0" result="hardAlpha"/>
<feOffset dy="-5.96454"/>
<feGaussianBlur stdDeviation="5.96454"/>
<feComposite in2="hardAlpha" operator="arithmetic" k2="-1" k3="1"/>
<feColorMatrix type="matrix" values="0 0 0 0 0.294118 0 0 0 0 0.121569 0 0 0 0 0.709804 0 0 0 0.18 0"/>
<feBlend mode="normal" in2="effect2_innerShadow_137_403" result="effect3_innerShadow_137_403"/>
</filter>
<clipPath id="bgblur_1_137_403_clip_path" transform="translate(-30.5771 -30.8504)"><path d="M49.3551 74.8847C49.9681 74.7256 50.6946 74.9961 50.9502 75.5949C51.9466 77.9302 54.3934 79.6607 57.3757 80.0592C60.4339 80.4667 63.2633 79.4281 64.9716 77.3212C65.3804 76.8174 66.1506 76.7429 66.6997 77.0589C67.2736 77.3892 67.5204 78.1154 67.0687 78.6724C65.9136 80.097 64.3384 81.1733 62.5187 81.7899C60.8836 82.344 59.0802 82.5231 57.2889 82.3161C57.2142 82.3075 57.1395 82.2983 57.0651 82.2883C55.2163 82.0412 53.4628 81.3915 51.9948 80.4048C50.4384 79.3587 49.2467 77.954 48.5571 76.3378C48.2756 75.678 48.7185 75.0501 49.3551 74.8847ZM54.2167 81.1354C54.4198 81.2174 54.626 81.2942 54.835 81.3651L54.836 81.3652C54.6267 81.2942 54.4201 81.2174 54.2167 81.1354ZM62.3919 81.4155C62.3038 81.4453 62.2153 81.4742 62.1263 81.5018L62.3918 81.4164C62.496 81.3811 62.599 81.3432 62.7015 81.3048C62.5992 81.3431 62.496 81.3802 62.3919 81.4155ZM57.9632 80.5135C58.0841 80.5217 58.2046 80.5284 58.3247 80.5326C58.2046 80.5284 58.0842 80.5217 57.9632 80.5135ZM73.9058 60.0411C76.1896 58.1711 79.3398 57.4754 82.2134 58.2907C84.5731 58.9604 84.8065 62.1297 82.5391 62.9841C81.5619 63.3522 80.7414 62.9799 79.7666 62.8673C77.7841 62.6382 75.8623 64.3283 75.6443 66.2141C75.3799 68.5021 75.0369 71.1045 74.7747 73.3735C74.4459 76.2148 69.4486 75.8272 69.8126 72.6723C70.3528 67.9974 69.8926 63.3275 73.9058 60.0411ZM89.2038 58.9294C90.5769 59.0883 91.5612 60.33 91.4029 61.703L90.1754 72.3267C89.858 75.0736 87.3739 77.0431 84.6269 76.7257L86.4292 61.1283C86.5882 59.7552 87.8306 58.7707 89.2038 58.9294ZM98.5967 55.5712C100.839 53.7108 103.929 53.0158 106.746 53.8213C109.059 54.4829 109.283 57.6299 107.059 58.4817C106.197 58.8117 105.46 58.5479 104.625 58.4109C104.243 58.4058 103.852 58.3959 103.427 58.4965C101.895 58.8599 100.596 60.2864 100.226 61.7984C100.177 61.998 100.092 62.419 100.04 62.7315L102.644 63.0324C103.995 63.1885 104.965 64.4105 104.809 65.7618C104.653 67.1131 103.431 68.0826 102.079 67.9267L99.4669 67.6248L98.4959 76.0289C97.8691 79.0078 93.3275 78.5546 93.4909 75.3247C94.1127 71.0566 94.483 66.7224 95.11 62.4607C95.1287 62.3322 95.1443 62.2034 95.1653 62.0758C95.1799 61.9789 95.1938 61.8818 95.2087 61.785C95.4278 60.365 95.8731 59.0707 96.5676 57.9281C96.5963 57.8798 96.6263 57.832 96.656 57.784C96.6846 57.7389 96.7121 57.693 96.7415 57.6484C97.2179 56.9104 97.8222 56.214 98.5967 55.5712ZM109.42 63.781C115.356 59.0405 124.146 63.2862 124.266 70.8029C124.388 78.44 115.804 82.8562 109.61 78.3964C104.719 74.8743 104.756 67.5055 109.42 63.781ZM51.6743 47.8029C52.2696 45.3889 55.7533 44.9792 56.774 47.3128C56.8789 47.5525 57.0522 48.1729 57.024 48.4162L56.1794 55.7259C56.5917 55.6526 56.9943 55.4716 57.4057 55.3653C65.1591 53.3588 71.096 60.9351 68.083 68.15C64.184 77.4846 49.2887 74.4469 49.7715 64.2282L51.6743 47.8029ZM63.9863 64.2556C63.859 59.8062 57.8696 58.4124 55.6906 62.2284C53.8825 65.3956 56.2239 69.3648 59.6351 70.0001C59.91 70.0511 60.7132 70.2181 60.8417 69.9292C61.0904 69.3669 60.5503 69.3859 60.1842 69.2211C59.7419 69.0217 59.1083 68.6389 59.0178 68.1367L59.2665 68.2303C61.8318 69.0986 64.0603 66.8475 63.9863 64.2556ZM115.078 66.738L115.078 66.7371C112.42 66.7017 110.385 69.3502 110.931 71.9144C111.686 75.458 116.255 76.4696 118.47 73.6201C120.648 70.8162 118.578 66.7846 115.078 66.738ZM90.0513 51.5953C91.4003 51.7514 92.3673 52.9713 92.2117 54.3203C92.0558 55.6696 90.8359 56.6375 89.4866 56.4818C88.1373 56.3258 87.1694 55.1051 87.3253 53.7557C87.4815 52.4066 88.7021 51.4395 90.0513 51.5953Z"/>
</clipPath><linearGradient id="paint0_linear_137_403" x1="36.6322" y1="28.6355" x2="143.585" y2="99.6436" gradientUnits="userSpaceOnUse">
<stop stop-color="#FDA0EE"/>
<stop offset="0.475962" stop-color="#973CEC"/>
<stop offset="1" stop-color="#6C63F7"/>
</linearGradient>
<linearGradient id="paint1_linear_137_403" x1="94.5094" y1="-16.2991" x2="0.154074" y2="72.1771" gradientUnits="userSpaceOnUse">
<stop stop-color="#BA74FB" stop-opacity="0.25"/>
<stop offset="1" stop-color="#6946F6" stop-opacity="0.25"/>
</linearGradient>
<clipPath id="clip0_137_403">
<rect x="26.5287" y="11.9116" width="133.03" height="127.345" rx="8.52754" transform="rotate(6.59113 26.5287 11.9116)" fill="white"/>
</clipPath>
</defs>
</svg>
