<svg width="415" height="415" viewBox="0 0 415 415" fill="none" xmlns="http://www.w3.org/2000/svg">
<path d="M149.68 187.589C152.732 186.675 155.617 184.956 158.634 183.794C215.476 161.858 266.96 213.927 250.49 271.082C229.178 345.034 113.956 335.089 108.681 257.442L108.717 131.648C111.107 112.884 137.076 106.744 146.828 123.489C147.829 125.207 149.68 129.745 149.68 131.609V187.589ZM181.968 278.902C203.099 284.936 219.045 265.388 216.132 245.235C211.287 211.717 164.797 206.414 151.663 237.16C140.765 262.674 161.928 290.624 188.263 292.446C190.385 292.591 196.6 293.15 197.317 290.853C198.706 286.386 194.639 287.006 191.729 286.079C188.211 284.959 183.088 282.617 181.968 278.899V278.902Z" fill="url(#paint0_linear_130_155)"/>
<path d="M241.58 130.327L242.82 126.727C243.392 125.065 244.177 123.683 245.176 122.581C246.196 121.417 247.483 120.38 249.036 119.469C250.65 118.579 252.625 117.641 254.961 116.655C257.895 115.53 260.222 114.472 261.94 113.48C263.741 112.448 264.96 111.009 265.595 109.162C266.4 106.823 266.308 104.691 265.318 102.767C264.349 100.781 262.388 99.28 259.433 98.263C256.786 97.3519 254.378 97.349 252.207 98.2542C250.119 99.1191 248.62 100.875 247.709 103.522L235.337 99.263C236.502 95.8776 238.495 93.0869 241.317 90.8911C244.138 88.6953 247.435 87.3173 251.208 86.7571C255.002 86.1354 258.93 86.5237 262.993 87.9221C267.424 89.4476 270.934 91.5508 273.523 94.2318C276.194 96.8723 277.905 99.802 278.656 103.021C279.468 106.261 279.292 109.574 278.126 112.959C277.364 115.175 276.378 117.039 275.169 118.55C274.043 120.022 272.558 121.335 270.715 122.49C268.871 123.646 266.461 124.847 263.485 126.095C261.087 127.059 259.277 127.917 258.055 128.666C256.855 129.355 256.004 130.026 255.504 130.679C255.024 131.272 254.658 131.937 254.403 132.676L253.768 134.523L241.58 130.327ZM239.983 154.769C238.506 154.26 237.309 153.435 236.394 152.294C235.458 151.215 234.832 149.932 234.517 148.447C234.264 146.983 234.37 145.573 234.836 144.219C235.62 141.942 237.036 140.329 239.083 139.382C241.13 138.434 243.231 138.331 245.386 139.073C247.479 139.793 249.04 141.157 250.07 143.164C251.162 145.192 251.316 147.345 250.532 149.622C250.066 150.976 249.252 152.142 248.09 153.119C246.989 154.117 245.737 154.753 244.334 155.027C242.911 155.363 241.46 155.277 239.983 154.769Z" fill="url(#paint1_linear_130_155)"/>
<path d="M191.156 143.418L190.823 141.829C190.67 141.096 190.656 140.418 190.781 139.797C190.901 139.148 191.145 138.487 191.515 137.815C191.911 137.137 192.43 136.362 193.07 135.491C193.899 134.439 194.519 133.544 194.932 132.805C195.366 132.034 195.498 131.241 195.327 130.426C195.111 129.394 194.612 128.634 193.83 128.146C193.042 127.63 191.996 127.509 190.692 127.781C189.524 128.026 188.642 128.55 188.045 129.356C187.469 130.128 187.303 131.098 187.548 132.266L182.088 133.408C181.776 131.914 181.897 130.457 182.45 129.037C183.004 127.618 183.91 126.393 185.169 125.365C186.422 124.309 187.945 123.593 189.738 123.219C191.693 122.81 193.437 122.813 194.97 123.23C196.525 123.613 197.791 124.312 198.768 125.327C199.773 126.336 200.431 127.587 200.744 129.081C200.948 130.059 200.994 130.956 200.882 131.774C200.791 132.558 200.534 133.363 200.111 134.188C199.688 135.014 199.068 135.98 198.251 137.086C197.584 137.963 197.108 138.672 196.825 139.213C196.535 139.727 196.37 140.159 196.33 140.507C196.284 140.829 196.295 141.152 196.363 141.478L196.533 142.293L191.156 143.418ZM195.907 152.715C195.255 152.851 194.637 152.81 194.052 152.592C193.474 152.401 192.965 152.068 192.525 151.593C192.113 151.113 191.844 150.573 191.719 149.976C191.509 148.971 191.675 148.072 192.218 147.278C192.761 146.484 193.507 145.988 194.458 145.789C195.381 145.596 196.251 145.754 197.066 146.264C197.909 146.768 198.435 147.523 198.645 148.527C198.77 149.125 198.727 149.729 198.514 150.341C198.329 150.947 198.01 151.453 197.556 151.859C197.108 152.293 196.558 152.578 195.907 152.715Z" fill="url(#paint2_linear_130_155)"/>
<path d="M275.309 173.575L277.652 172.391C278.733 171.844 279.785 171.539 280.808 171.474C281.871 171.389 283.005 171.495 284.21 171.791C285.436 172.126 286.862 172.612 288.49 173.247C290.481 174.101 292.138 174.696 293.464 175.031C294.85 175.386 296.144 175.26 297.345 174.653C298.867 173.884 299.845 172.787 300.28 171.36C300.756 169.913 300.508 168.229 299.536 166.307C298.666 164.585 297.477 163.426 295.97 162.831C294.523 162.255 292.938 162.403 291.216 163.273L287.148 155.224C289.351 154.111 291.676 153.69 294.126 153.96C296.575 154.231 298.866 155.134 300.999 156.669C303.173 158.185 304.928 160.264 306.263 162.907C307.72 165.79 308.445 168.516 308.436 171.084C308.487 173.672 307.925 175.942 306.749 177.893C305.594 179.885 303.916 181.437 301.713 182.55C300.272 183.279 298.889 183.726 297.566 183.892C296.302 184.078 294.938 184.014 293.472 183.699C292.005 183.385 290.237 182.82 288.167 182.007C286.519 181.332 285.213 180.886 284.249 180.669C283.325 180.432 282.582 180.355 282.021 180.438C281.499 180.501 280.998 180.653 280.518 180.896L279.316 181.503L275.309 173.575ZM262.777 184.885C262.292 183.924 262.097 182.942 262.193 181.938C262.249 180.955 262.556 180.021 263.114 179.135C263.692 178.29 264.422 177.645 265.303 177.2C266.784 176.451 268.258 176.334 269.725 176.849C271.192 177.365 272.28 178.323 272.988 179.725C273.676 181.086 273.793 182.51 273.338 183.997C272.903 185.524 271.945 186.662 270.463 187.41C269.582 187.856 268.62 188.04 267.576 187.965C266.553 187.929 265.629 187.642 264.804 187.104C263.939 186.586 263.263 185.846 262.777 184.885Z" fill="url(#paint3_linear_130_155)"/>
<defs>
<linearGradient id="paint0_linear_130_155" x1="213.388" y1="113.723" x2="213.388" y2="170.476" gradientUnits="userSpaceOnUse">
<stop stop-color="#7C37D9"/>
<stop offset="1" stop-color="#5A28C7"/>
</linearGradient>
<linearGradient id="paint1_linear_130_155" x1="269.293" y1="89.079" x2="240.929" y2="159.314" gradientUnits="userSpaceOnUse">
<stop stop-color="#7C37D9"/>
<stop offset="1" stop-color="#5A28C7"/>
</linearGradient>
<linearGradient id="paint2_linear_130_155" x1="192.88" y1="110.95" x2="192.88" y2="158.639" gradientUnits="userSpaceOnUse">
<stop stop-color="#7C37D9"/>
<stop offset="1" stop-color="#5A28C7"/>
</linearGradient>
<linearGradient id="paint3_linear_130_155" x1="299.137" y1="145.146" x2="286.331" y2="193.081" gradientUnits="userSpaceOnUse">
<stop stop-color="#7C37D9"/>
<stop offset="1" stop-color="#5A28C7"/>
</linearGradient>
</defs>
</svg>
