<svg width="415" height="415" viewBox="0 0 415 415" fill="none" xmlns="http://www.w3.org/2000/svg">
<path d="M147.127 165.527C150.179 164.613 153.064 162.895 156.081 161.732C212.923 139.797 264.407 191.865 247.937 249.021C226.625 322.973 111.403 313.027 106.128 235.38L106.163 109.586C108.554 90.8229 134.523 84.6826 144.275 101.427C145.276 103.145 147.127 107.684 147.127 109.547V165.527ZM179.414 256.841C200.545 262.874 216.492 243.326 213.579 223.174C208.734 189.656 162.243 184.352 149.11 215.099C138.212 240.613 159.375 268.563 185.71 270.384C187.832 270.53 194.047 271.088 194.764 268.792C196.153 264.325 192.086 264.945 189.176 264.018C185.658 262.897 180.535 260.555 179.414 256.837V256.841Z" fill="black"/>
<path d="M147.127 165.527C150.179 164.613 153.064 162.895 156.081 161.732C212.923 139.797 264.407 191.865 247.937 249.021C226.625 322.973 111.403 313.027 106.128 235.38L106.163 109.586C108.554 90.8229 134.523 84.6826 144.275 101.427C145.276 103.145 147.127 107.684 147.127 109.547V165.527ZM179.414 256.841C200.545 262.874 216.492 243.326 213.579 223.174C208.734 189.656 162.243 184.352 149.11 215.099C138.212 240.613 159.375 268.563 185.71 270.384C187.832 270.53 194.047 271.088 194.764 268.792C196.153 264.325 192.086 264.945 189.176 264.018C185.658 262.897 180.535 260.555 179.414 256.837V256.841Z" fill="url(#paint0_linear_130_167)"/>
<path d="M172.806 323.803C175.013 321.929 178.511 321.632 180.7 323.543C190.054 331.707 204.469 334.093 218.371 329.531L219.037 329.307C232.945 324.517 242.902 314.1 245.892 301.409C246.537 298.674 249.361 296.859 252.159 296.938L252.431 296.952L252.709 296.978C255.569 297.321 257.756 299.714 257.054 302.695C255.043 311.229 250.499 319.143 243.939 325.589C238.042 331.384 230.637 335.918 222.474 338.758L221.45 339.104C212.955 341.892 204.036 342.742 195.653 341.544C186.767 340.275 178.716 336.704 172.392 331.184C170.012 329.107 170.529 325.737 172.806 323.803Z" fill="#5A28C7" stroke="#5A28C7" stroke-width="3"/>
<path d="M291.616 144.438C290.228 146.915 288.234 149.115 286.042 150.868C280.246 155.501 273.096 157.377 267.733 162.599C266.464 163.834 265.242 164.95 264.129 166.931C263.413 168.205 261.898 168.206 261.116 166.687C258.025 160.683 252.918 156.208 248.189 151.613C242.018 145.617 235.83 136.906 239.528 127.94C242.971 119.589 253.277 116.244 261.111 120.578C264.277 122.33 266.655 125.375 267.778 128.847C268.538 127.593 269.469 126.459 270.612 125.552C278.644 119.177 291.767 125.717 293.412 135.243C293.974 138.499 293.181 141.645 291.616 144.438Z" fill="url(#paint1_linear_130_167)"/>
<path d="M257.755 78.2495C258.184 79.7708 258.265 81.4216 258.091 82.9749C257.634 87.08 255.557 90.633 255.502 94.7999C255.489 95.7854 255.447 96.7061 255.789 97.9234C256.009 98.7068 255.412 99.3038 254.507 99.0137C250.926 97.8671 247.155 98.1159 243.484 98.1686C238.695 98.2373 232.83 97.2442 230.756 92.2593C228.824 87.6167 231.565 82.2428 236.354 80.8654C238.29 80.3088 240.425 80.5711 242.234 81.4957C242.039 80.7031 241.959 79.89 242.052 79.0833C242.704 73.4117 250.445 70.8208 254.842 73.923C256.345 74.9832 257.271 76.534 257.755 78.2495Z" fill="url(#paint2_linear_130_167)"/>
<path d="M293.309 103.794C292.762 104.77 291.977 105.636 291.113 106.327C288.83 108.152 286.014 108.891 283.902 110.948C283.402 111.434 282.92 111.874 282.482 112.654C282.2 113.156 281.603 113.156 281.295 112.558C280.078 110.193 278.066 108.43 276.204 106.62C273.773 104.259 271.336 100.828 272.792 97.296C274.148 94.0066 278.208 92.6891 281.293 94.3963C282.54 95.0863 283.477 96.2857 283.92 97.6532C284.219 97.1592 284.586 96.7125 285.036 96.3554C288.199 93.8442 293.368 96.4204 294.016 100.173C294.238 101.455 293.925 102.694 293.309 103.794Z" fill="url(#paint3_linear_130_167)"/>
<defs>
<linearGradient id="paint0_linear_130_167" x1="210.834" y1="91.6613" x2="210.834" y2="148.414" gradientUnits="userSpaceOnUse">
<stop stop-color="#7C37D9"/>
<stop offset="1" stop-color="#5A28C7"/>
</linearGradient>
<linearGradient id="paint1_linear_130_167" x1="272.245" y1="113.154" x2="277.651" y2="170.643" gradientUnits="userSpaceOnUse">
<stop stop-color="#7C37D9"/>
<stop offset="1" stop-color="#5A28C7"/>
</linearGradient>
<linearGradient id="paint2_linear_130_167" x1="247.785" y1="72.9655" x2="250.89" y2="103.906" gradientUnits="userSpaceOnUse">
<stop stop-color="#7C37D9"/>
<stop offset="1" stop-color="#5A28C7"/>
</linearGradient>
<linearGradient id="paint3_linear_130_167" x1="285.679" y1="91.4721" x2="287.808" y2="114.116" gradientUnits="userSpaceOnUse">
<stop stop-color="#7C37D9"/>
<stop offset="1" stop-color="#5A28C7"/>
</linearGradient>
</defs>
</svg>
