<svg width="415" height="415" viewBox="0 0 415 415" fill="none" xmlns="http://www.w3.org/2000/svg">
<path d="M176.037 140.075C179.089 139.16 181.973 137.442 184.99 136.279C241.833 114.344 293.316 166.412 276.846 223.568C255.534 297.52 140.312 287.575 135.038 209.928L135.073 84.1334C137.463 65.3701 163.433 59.2298 173.184 75.9743C174.186 77.6927 176.037 82.2309 176.037 84.0947V140.075ZM208.324 231.388C229.455 237.422 245.402 217.873 242.488 197.721C237.643 164.203 191.153 158.899 178.02 189.646C167.122 215.16 188.285 243.11 214.619 244.932C216.742 245.077 222.956 245.636 223.673 243.339C225.062 238.872 220.996 239.492 218.085 238.565C214.568 237.444 209.445 235.102 208.324 231.385V231.388Z" fill="black"/>
<path d="M176.037 140.075C179.089 139.16 181.973 137.442 184.99 136.279C241.833 114.344 293.316 166.412 276.846 223.568C255.534 297.52 140.312 287.575 135.038 209.928L135.073 84.1334C137.463 65.3701 163.433 59.2298 173.184 75.9743C174.186 77.6927 176.037 82.2309 176.037 84.0947V140.075ZM208.324 231.388C229.455 237.422 245.402 217.873 242.488 197.721C237.643 164.203 191.153 158.899 178.02 189.646C167.122 215.16 188.285 243.11 214.619 244.932C216.742 245.077 222.956 245.636 223.673 243.339C225.062 238.872 220.996 239.492 218.085 238.565C214.568 237.444 209.445 235.102 208.324 231.385V231.388Z" fill="url(#paint0_linear_130_187)"/>
<path d="M281.714 349.74C277.398 351.195 272.246 349.698 270.081 345.902C258.82 326.157 235.414 313.469 208.868 312.996L208.869 312.996C181.639 312.521 157.714 324.501 144.735 344.918L144.499 345.268C141.969 348.808 136.7 349.959 132.521 348.157C128.107 346.254 126.048 341.479 128.612 337.447C136.651 324.8 148.322 314.488 162.412 307.534L163.783 306.872C177.001 300.621 192.022 297.345 207.338 297.345C207.977 297.345 208.615 297.351 209.253 297.363L209.253 297.364C225.095 297.646 240.501 301.416 253.806 308.287C267.465 315.342 278.535 325.535 285.875 337.844L286.573 339.042C288.933 343.181 286.61 347.856 282.129 349.589L281.714 349.74Z" fill="#5A28C7" stroke="#5A28C7" stroke-width="3"/>
<defs>
<linearGradient id="paint0_linear_130_187" x1="239.744" y1="66.2086" x2="239.744" y2="122.961" gradientUnits="userSpaceOnUse">
<stop stop-color="#7C37D9"/>
<stop offset="1" stop-color="#5A28C7"/>
</linearGradient>
</defs>
</svg>
