<svg width="415" height="415" viewBox="0 0 415 415" fill="none" xmlns="http://www.w3.org/2000/svg">
<path d="M176.037 152.527C179.089 151.613 181.973 149.895 184.99 148.732C241.833 126.797 293.316 178.865 276.846 236.021C255.534 309.972 140.312 300.027 135.038 222.38L135.073 96.586C137.463 77.8226 163.433 71.6823 173.184 88.4269C174.186 90.1452 176.037 94.6835 176.037 96.5472V152.527ZM208.324 243.84C229.455 249.874 245.402 230.326 242.488 210.174C237.643 176.656 191.153 171.352 178.02 202.099C167.122 227.613 188.285 255.562 214.619 257.384C216.742 257.529 222.956 258.088 223.673 255.792C225.062 251.324 220.996 251.945 218.085 251.018C214.568 249.897 209.445 247.555 208.324 243.837V243.84Z" fill="black"/>
<path d="M176.037 152.527C179.089 151.613 181.973 149.895 184.99 148.732C241.833 126.797 293.316 178.865 276.846 236.021C255.534 309.972 140.312 300.027 135.038 222.38L135.073 96.586C137.463 77.8226 163.433 71.6823 173.184 88.4269C174.186 90.1452 176.037 94.6835 176.037 96.5472V152.527ZM208.324 243.84C229.455 249.874 245.402 230.326 242.488 210.174C237.643 176.656 191.153 171.352 178.02 202.099C167.122 227.613 188.285 255.562 214.619 257.384C216.742 257.529 222.956 258.088 223.673 255.792C225.062 251.324 220.996 251.945 218.085 251.018C214.568 249.897 209.445 247.555 208.324 243.837V243.84Z" fill="url(#paint0_linear_130_182)"/>
<path d="M133.286 285.445C137.602 283.989 142.754 285.486 144.919 289.282C156.18 309.027 179.586 321.715 206.132 322.188H206.131C233.361 322.663 257.286 310.683 270.265 290.266L270.501 289.916C273.031 286.376 278.3 285.225 282.479 287.027C286.893 288.93 288.952 293.705 286.388 297.738C278.349 310.384 266.678 320.696 252.588 327.65L251.217 328.312C237.999 334.564 222.978 337.839 207.662 337.839C207.023 337.839 206.385 337.833 205.747 337.822V337.821C189.905 337.538 174.499 333.768 161.194 326.897C147.535 319.843 136.465 309.649 129.125 297.34L128.427 296.142C126.067 292.003 128.39 287.329 132.871 285.595L133.286 285.445Z" fill="#5A28C7" stroke="#5A28C7" stroke-width="3"/>
<path d="M185.859 330.332L188.347 350.637C190.379 367.228 205.476 379.03 222.067 376.998C238.658 374.965 250.461 359.868 248.428 343.277L246.904 330.833" stroke="#5A28C7" stroke-width="6"/>
<path d="M216.901 330.956L218.984 350.551" stroke="#5A28C7" stroke-width="5" stroke-linecap="round"/>
<defs>
<linearGradient id="paint0_linear_130_182" x1="239.744" y1="78.6611" x2="239.744" y2="135.414" gradientUnits="userSpaceOnUse">
<stop stop-color="#7C37D9"/>
<stop offset="1" stop-color="#5A28C7"/>
</linearGradient>
</defs>
</svg>
