<svg width="415" height="415" viewBox="0 0 415 415" fill="none" xmlns="http://www.w3.org/2000/svg">
<path d="M176.037 160.445C179.089 159.531 181.974 157.813 184.99 156.65C241.833 134.715 293.316 186.783 276.846 243.938C255.535 317.89 140.313 307.945 135.038 230.298L135.073 104.504C137.464 85.7406 163.433 79.6003 173.185 96.3448C174.186 98.0632 176.037 102.601 176.037 104.465V160.445ZM208.324 251.758C229.455 257.792 245.402 238.244 242.489 218.092C237.643 184.573 191.153 179.27 178.02 210.017C167.122 235.531 188.285 263.48 214.62 265.302C216.742 265.447 222.956 266.006 223.673 263.71C225.062 259.242 220.996 259.863 218.086 258.936C214.568 257.815 209.445 255.473 208.324 251.755V251.758Z" fill="black"/>
<path d="M176.037 160.445C179.089 159.531 181.974 157.813 184.99 156.65C241.833 134.715 293.316 186.783 276.846 243.938C255.535 317.89 140.313 307.945 135.038 230.298L135.073 104.504C137.464 85.7406 163.433 79.6003 173.185 96.3448C174.186 98.0632 176.037 102.601 176.037 104.465V160.445ZM208.324 251.758C229.455 257.792 245.402 238.244 242.489 218.092C237.643 184.573 191.153 179.27 178.02 210.017C167.122 235.531 188.285 263.48 214.62 265.302C216.742 265.447 222.956 266.006 223.673 263.71C225.062 259.242 220.996 259.863 218.086 258.936C214.568 257.815 209.445 255.473 208.324 251.755V251.758Z" fill="url(#paint0_linear_130_145)"/>
<path d="M127.809 328.421H287.191" stroke="#5A28C7" stroke-width="18" stroke-linecap="round"/>
<defs>
<linearGradient id="paint0_linear_130_145" x1="239.744" y1="86.579" x2="239.744" y2="143.332" gradientUnits="userSpaceOnUse">
<stop stop-color="#7C37D9"/>
<stop offset="1" stop-color="#5A28C7"/>
</linearGradient>
</defs>
</svg>
