<svg width="415" height="415" viewBox="0 0 415 415" fill="none" xmlns="http://www.w3.org/2000/svg">
<path d="M176.037 150.009C179.089 149.095 181.974 147.377 184.99 146.214C241.833 124.278 293.316 176.347 276.846 233.502C255.535 307.454 140.313 297.509 135.038 219.862L135.073 94.0679C137.464 75.3046 163.433 69.1642 173.185 85.9088C174.186 87.6272 176.037 92.1654 176.037 94.0291V150.009ZM208.324 241.322C229.455 247.356 245.402 227.808 242.489 207.656C237.643 174.137 191.153 168.834 178.02 199.581C167.122 225.095 188.285 253.044 214.62 254.866C216.742 255.011 222.956 255.57 223.673 253.274C225.062 248.806 220.996 249.427 218.086 248.5C214.568 247.379 209.445 245.037 208.324 241.319V241.322Z" fill="black"/>
<path d="M176.037 150.009C179.089 149.095 181.974 147.377 184.99 146.214C241.833 124.278 293.316 176.347 276.846 233.502C255.535 307.454 140.313 297.509 135.038 219.862L135.073 94.0679C137.464 75.3046 163.433 69.1642 173.185 85.9088C174.186 87.6272 176.037 92.1654 176.037 94.0291V150.009ZM208.324 241.322C229.455 247.356 245.402 227.808 242.489 207.656C237.643 174.137 191.153 168.834 178.02 199.581C167.122 225.095 188.285 253.044 214.62 254.866C216.742 255.011 222.956 255.57 223.673 253.274C225.062 248.806 220.996 249.427 218.086 248.5C214.568 247.379 209.445 245.037 208.324 241.319V241.322Z" fill="url(#paint0_linear_130_160)"/>
<path d="M207.741 338.857C195.3 338.859 186.536 328.065 183.534 319.809C182.691 317.489 177.807 311.942 172.925 311.492C169.232 311.157 165.587 314.009 162.071 319.978C154.214 333.316 144.731 335.776 138.153 335.481C125.651 334.931 114.846 323.949 110.098 313.977C108.474 310.566 109.923 306.483 113.334 304.859C116.746 303.234 120.827 304.683 122.452 308.095C125.56 314.622 132.507 321.537 138.754 321.812C142.872 322.009 146.744 319.04 150.281 313.034C158.301 299.419 167.704 297.271 174.178 297.867C185.426 298.902 194.082 308.782 196.393 315.133C196.439 315.263 201.516 327.89 211.083 324.551C214.386 323.397 217.081 320.709 218.477 317.177C225.936 298.291 238.906 296.863 244.136 297.141C253.452 297.616 262.183 304.038 264.444 312.079L264.537 312.447C266.027 319.152 270.821 323.783 276.749 324.244C283.172 324.738 289.013 319.955 292.357 311.432C293.737 307.915 297.706 306.181 301.224 307.562C304.742 308.942 306.474 312.913 305.094 316.43C298.428 333.417 285.532 338.65 275.688 337.885C263.891 336.967 254.095 328.053 251.238 315.669C250.608 313.776 247.344 311.004 243.438 310.804C236.83 310.472 232.94 317.801 231.202 322.203C228.344 329.438 222.655 335.002 215.593 337.468C212.842 338.429 210.217 338.857 207.741 338.857Z" fill="#5A28C7"/>
<defs>
<linearGradient id="paint0_linear_130_160" x1="239.744" y1="76.143" x2="239.744" y2="132.896" gradientUnits="userSpaceOnUse">
<stop stop-color="#7C37D9"/>
<stop offset="1" stop-color="#5A28C7"/>
</linearGradient>
</defs>
</svg>
