<svg width="415" height="415" viewBox="0 0 415 415" fill="none" xmlns="http://www.w3.org/2000/svg">
<path d="M176.037 152.69C179.089 151.776 181.974 150.058 184.99 148.895C241.833 126.96 293.316 179.028 276.846 236.184C255.535 310.135 140.313 300.19 135.038 222.543L135.073 96.749C137.464 77.9857 163.433 71.8454 173.185 88.5899C174.186 90.3083 176.037 94.8465 176.037 96.7103V152.69ZM208.324 244.004C229.455 250.037 245.402 230.489 242.489 210.337C237.643 176.819 191.153 171.515 178.02 202.262C167.122 227.776 188.285 255.725 214.62 257.547C216.742 257.692 222.956 258.251 223.673 255.955C225.062 251.488 220.996 252.108 218.086 251.181C214.568 250.06 209.445 247.718 208.324 244V244.004Z" fill="black"/>
<path d="M176.037 152.69C179.089 151.776 181.974 150.058 184.99 148.895C241.833 126.96 293.316 179.028 276.846 236.184C255.535 310.135 140.313 300.19 135.038 222.543L135.073 96.749C137.464 77.9857 163.433 71.8454 173.185 88.5899C174.186 90.3083 176.037 94.8465 176.037 96.7103V152.69ZM208.324 244.004C229.455 250.037 245.402 230.489 242.489 210.337C237.643 176.819 191.153 171.515 178.02 202.262C167.122 227.776 188.285 255.725 214.62 257.547C216.742 257.692 222.956 258.251 223.673 255.955C225.062 251.488 220.996 252.108 218.086 251.181C214.568 250.06 209.445 247.718 208.324 244V244.004Z" fill="url(#paint0_linear_130_164)"/>
<path d="M201.716 310.966C203.923 309.092 207.421 308.795 209.61 310.706C218.964 318.87 233.379 321.256 247.281 316.694L247.947 316.47C261.855 311.68 271.812 301.263 274.802 288.572C275.447 285.837 278.271 284.022 281.069 284.1L281.341 284.115L281.619 284.141C284.478 284.484 286.666 286.877 285.964 289.858C283.953 298.392 279.409 306.306 272.848 312.752C266.952 318.546 259.547 323.081 251.384 325.921L250.36 326.267C241.865 329.055 232.946 329.904 224.563 328.707C215.677 327.438 207.626 323.867 201.302 318.347C198.922 316.27 199.439 312.9 201.716 310.966Z" fill="#5A28C7" stroke="#5A28C7" stroke-width="3"/>
<defs>
<linearGradient id="paint0_linear_130_164" x1="239.744" y1="78.8242" x2="239.744" y2="135.577" gradientUnits="userSpaceOnUse">
<stop stop-color="#7C37D9"/>
<stop offset="1" stop-color="#5A28C7"/>
</linearGradient>
</defs>
</svg>
