<svg width="415" height="415" viewBox="0 0 415 415" fill="none" xmlns="http://www.w3.org/2000/svg">
<path d="M176.037 143.513C179.089 142.599 181.973 140.88 184.99 139.718C241.833 117.782 293.316 169.851 276.846 227.006C255.534 300.958 140.312 291.013 135.038 213.366L135.073 87.5718C137.463 68.8085 163.433 62.6682 173.184 79.4127C174.186 81.1311 176.037 85.6693 176.037 87.533V143.513ZM208.324 234.826C229.455 240.86 245.402 221.312 242.488 201.16C237.643 167.641 191.153 162.338 178.02 193.084C167.122 218.599 188.285 246.548 214.619 248.37C216.742 248.515 222.956 249.074 223.673 246.777C225.062 242.31 220.996 242.93 218.085 242.003C214.568 240.883 209.445 238.541 208.324 234.823V234.826Z" fill="black"/>
<path d="M176.037 143.513C179.089 142.599 181.973 140.88 184.99 139.718C241.833 117.782 293.316 169.851 276.846 227.006C255.534 300.958 140.312 291.013 135.038 213.366L135.073 87.5718C137.463 68.8085 163.433 62.6682 173.184 79.4127C174.186 81.1311 176.037 85.6693 176.037 87.533V143.513ZM208.324 234.826C229.455 240.86 245.402 221.312 242.488 201.16C237.643 167.641 191.153 162.338 178.02 193.084C167.122 218.599 188.285 246.548 214.619 248.37C216.742 248.515 222.956 249.074 223.673 246.777C225.062 242.31 220.996 242.93 218.085 242.003C214.568 240.883 209.445 238.541 208.324 234.823V234.826Z" fill="url(#paint0_linear_130_174)"/>
<path d="M296.917 312.61C294.674 314.441 291.172 314.673 289.019 312.72C279.822 304.38 265.455 301.721 251.469 306.019L250.799 306.23C236.802 310.756 226.65 320.982 223.42 333.614C222.723 336.336 219.865 338.098 217.069 337.966L216.797 337.947L216.52 337.915C213.667 337.517 211.525 335.084 212.284 332.117C214.457 323.622 219.149 315.796 225.831 309.475C231.836 303.794 239.326 299.401 247.542 296.715L248.571 296.389C257.118 293.763 266.051 293.082 274.41 294.438C283.271 295.876 291.253 299.599 297.471 305.238C299.811 307.359 299.231 310.719 296.917 312.61Z" fill="#5A28C7" stroke="#5A28C7" stroke-width="3"/>
<defs>
<linearGradient id="paint0_linear_130_174" x1="239.744" y1="69.6469" x2="239.744" y2="126.4" gradientUnits="userSpaceOnUse">
<stop stop-color="#7C37D9"/>
<stop offset="1" stop-color="#5A28C7"/>
</linearGradient>
</defs>
</svg>
