<svg width="830" height="448" viewBox="0 0 830 448" fill="none" xmlns="http://www.w3.org/2000/svg">
<path d="M130.36 113.086C132.751 94.3225 158.719 88.1822 168.471 104.927C169.472 106.645 171.323 111.183 171.323 113.047V169.027C174.376 168.113 177.26 166.394 180.277 165.231C237.12 143.296 288.603 195.365 272.133 252.52C250.821 326.472 135.599 316.527 130.324 238.88L130.36 113.086ZM309.053 186.16C324.68 170.032 347.881 162.021 370.311 165.675C388.728 168.676 393.259 192.423 376.87 200.86C369.806 204.497 363.28 202.4 355.813 202.4C340.63 202.4 327.58 216.851 327.58 231.293C327.58 248.814 327.267 268.776 327.267 286.152C327.267 307.915 289.148 309.35 289.148 285.186C289.148 249.385 281.594 214.5 309.053 186.16ZM423.691 164.401C434.209 164.401 442.736 172.928 442.736 183.446V283.847C442.736 294.365 434.209 302.892 423.691 302.892C413.173 302.892 404.647 294.365 404.646 283.847V183.446C404.646 172.928 413.173 164.401 423.691 164.401ZM491.748 130.826C507.069 114.807 529.816 106.85 551.807 110.478C569.863 113.459 574.307 137.046 558.239 145.427C552.024 148.669 546.233 147.324 539.819 147.014C536.916 147.311 533.941 147.573 530.803 148.71C519.543 152.793 510.976 164.708 509.497 176.459C509.302 178.009 509.027 181.263 508.906 183.671H528.852C539.201 183.671 547.592 192.061 547.592 202.411C547.592 212.761 539.201 221.151 528.852 221.151H508.845V285.514C506.71 308.573 471.997 309.113 470.41 284.562C471.207 257.679 470.67 230.606 471.011 203.679C470.983 203.26 470.968 202.837 470.968 202.411C470.968 201.804 470.997 201.204 471.054 200.612C471.126 195.864 471.23 191.121 471.374 186.385C471.388 185.858 471.405 185.333 471.424 184.808C471.468 183.451 471.514 182.094 471.565 180.738C472.004 169.224 474.45 158.539 479.163 148.905C482.156 142.638 486.231 136.595 491.748 130.826ZM580.708 183.411C621.426 142.402 691.557 166.815 699.031 223.514C706.625 281.122 645.609 321.996 594.907 293.701C554.868 271.356 548.715 215.631 580.708 183.411ZM237.775 226.674C232.93 193.155 186.44 187.852 173.307 218.598C162.409 244.113 183.572 272.062 209.906 273.884C212.028 274.029 218.243 274.587 218.96 272.291C220.349 267.824 216.282 268.444 213.372 267.517C209.855 266.397 204.734 264.056 203.611 260.34C224.742 266.373 240.689 246.826 237.775 226.674ZM657.693 249.866C671.709 226.774 652.538 198.114 626.052 200.817L626.049 200.814C605.926 202.869 592.866 224.658 599.232 243.56C608.028 269.682 643.446 273.335 657.693 249.866ZM423.691 108.23C434.025 108.23 442.402 116.608 442.402 126.941C442.402 137.275 434.025 145.652 423.691 145.652C413.358 145.652 404.98 137.275 404.98 126.941C404.98 116.607 413.358 108.23 423.691 108.23Z" fill="white"/>
<path d="M125.524 301.945C129.84 300.489 134.993 301.986 137.158 305.783C148.419 325.527 171.825 338.215 198.371 338.688H198.37C225.6 339.163 249.524 327.183 262.504 306.766L262.74 306.416C265.27 302.876 270.539 301.725 274.718 303.527C279.132 305.43 281.191 310.205 278.627 314.238C270.587 326.884 258.916 337.196 244.827 344.15L243.456 344.812C230.238 351.064 215.217 354.339 199.9 354.339C199.262 354.339 198.624 354.333 197.985 354.322V354.321C182.143 354.039 166.738 350.268 153.433 343.397C139.774 336.343 128.704 326.149 121.364 313.84L120.666 312.642C118.306 308.503 120.629 303.829 125.109 302.095L125.524 301.945Z" fill="white" stroke="white" stroke-width="3"/>
</svg>
