<svg width="164" height="261" viewBox="0 0 164 261" fill="none" xmlns="http://www.w3.org/2000/svg">
<path d="M50.0578 73.866C53.1102 72.9519 55.9946 71.2335 59.0115 70.0707C115.854 48.1354 167.337 100.204 150.867 157.359C129.556 231.311 14.3335 221.366 9.05884 143.719L9.09437 17.9248C11.4846 -0.838504 37.4542 -6.97882 47.2057 9.76573C48.207 11.4841 50.0578 16.0223 50.0578 17.8861V73.866ZM82.3453 165.179C103.476 171.213 119.423 151.665 116.51 131.513C111.664 97.9944 65.1744 92.6906 52.041 123.437C41.1429 148.952 62.3061 176.901 88.6407 178.723C90.7628 178.868 96.9774 179.427 97.6945 177.13C99.0834 172.663 95.0168 173.284 92.1065 172.356C88.589 171.236 83.4661 168.894 82.3453 165.176V165.179Z" fill="black"/>
<path d="M50.0578 73.866C53.1102 72.9519 55.9946 71.2335 59.0115 70.0707C115.854 48.1354 167.337 100.204 150.867 157.359C129.556 231.311 14.3335 221.366 9.05884 143.719L9.09437 17.9248C11.4846 -0.838504 37.4542 -6.97882 47.2057 9.76573C48.207 11.4841 50.0578 16.0223 50.0578 17.8861V73.866ZM82.3453 165.179C103.476 171.213 119.423 151.665 116.51 131.513C111.664 97.9944 65.1744 92.6906 52.041 123.437C41.1429 148.952 62.3061 176.901 88.6407 178.723C90.7628 178.868 96.9774 179.427 97.6945 177.13C99.0834 172.663 95.0168 173.284 92.1065 172.356C88.589 171.236 83.4661 168.894 82.3453 165.176V165.179Z" fill="url(#paint0_linear_128_10473)"/>
<path d="M7.30664 206.784C11.6225 205.328 16.7752 206.825 18.9404 210.622C30.201 230.366 53.6074 243.054 80.1533 243.527H80.1523C107.382 244.002 131.307 232.022 144.286 211.605L144.522 211.255C147.052 207.715 152.321 206.564 156.5 208.366C160.914 210.269 162.973 215.044 160.409 219.077C152.37 231.723 140.699 242.035 126.609 248.989L125.238 249.651C112.02 255.903 96.9988 259.178 81.6826 259.178C81.0442 259.178 80.4063 259.172 79.7676 259.161V259.16C63.9256 258.878 48.5198 255.107 35.2148 248.236C21.5564 241.182 10.486 230.988 3.14648 218.679L2.44824 217.481C0.0879888 213.342 2.41118 208.668 6.8916 206.934L7.30664 206.784Z" fill="#5A28C7" stroke="#5A28C7" stroke-width="3"/>
<defs>
<linearGradient id="paint0_linear_128_10473" x1="113.765" y1="-6.66996e-05" x2="113.765" y2="56.7526" gradientUnits="userSpaceOnUse">
<stop stop-color="#7C37D9"/>
<stop offset="1" stop-color="#5A28C7"/>
</linearGradient>
</defs>
</svg>
